<svg width="28" height="28" viewBox="0 0 28 28" fill="none" xmlns="http://www.w3.org/2000/svg">
<rect width="28" height="28" fill="#51BDEA"/>
<path fill-rule="evenodd" clip-rule="evenodd" d="M20.0664 16.9238H20.4829C20.551 16.8984 20.6192 16.9009 20.6874 16.9234C20.7008 16.9195 20.7143 16.9154 20.7277 16.9112L20.7278 16.9112L20.7278 16.9112C20.7595 16.9013 20.7913 16.8915 20.8237 16.886C21.2497 16.8153 21.6654 16.7139 22.0606 16.531C22.6521 16.2575 23.1849 15.9063 23.6492 15.4441C23.931 15.1636 24.1637 14.846 24.3641 14.5131C24.6654 14.0131 24.82 13.452 24.8828 12.8693C24.9102 12.7001 24.9073 12.5305 24.8844 12.3614C24.5444 9.7059 22.6034 8.14062 20.1479 7.95525C19.8985 7.92782 19.6491 7.93364 19.3997 7.95276C19.012 7.96439 18.6171 7.99972 18.2638 8.14478C17.364 8.51386 16.5872 9.06873 15.977 9.83723C15.4562 10.4935 15.0805 11.2126 15.0352 12.0704C15.0123 12.1955 15.0123 12.3206 15.0352 12.4457C15.0415 12.5276 15.0438 12.6095 15.046 12.6914V12.6914C15.0502 12.8415 15.0544 12.9918 15.0834 13.1423C15.2122 13.8074 15.4828 14.4109 15.9267 14.9121C16.3299 15.3672 16.7846 15.7691 17.3266 16.0788C18.093 16.5165 18.891 16.8207 19.7726 16.8934C19.8199 16.9132 19.8696 16.9109 19.9193 16.9086C19.969 16.9063 20.0188 16.904 20.0664 16.9238ZM17.8934 9.10895C16.5542 9.74736 15.8352 10.8376 15.7841 12.1551L15.7845 12.1555C15.7878 12.9764 15.9478 13.5699 16.2409 14.1302C16.9345 15.4586 18.3901 16.3867 19.9209 16.1456C20.0697 16.1223 20.2247 16.1157 20.3747 16.1277C20.7638 16.1585 21.1474 16.141 21.5285 16.0558C23.3723 15.6427 24.6188 13.7399 24.263 11.8958C24.137 11.2432 23.7746 10.7179 23.4026 10.1937C23.1059 9.77562 22.7401 9.42898 22.29 9.18584C20.8402 8.40237 19.356 8.41193 17.8934 9.10895ZM18.1844 13.1999L18.1845 13.2L18.1845 13.2C18.3313 13.3083 18.4724 13.4125 18.6068 13.5243C18.8645 13.7387 18.8408 13.8792 18.5299 13.9873C18.101 14.1361 17.6616 14.2076 17.2078 14.1174C16.4688 13.9711 16.1042 13.5209 16.1674 12.7699C16.2231 12.1078 16.5373 11.5725 17.1005 11.2113C17.5398 10.9299 17.9954 10.9519 18.4168 11.2591C18.8811 11.5974 19.1629 12.0658 19.303 12.6182C19.3674 12.8717 19.2689 12.9889 19.007 12.9806C18.903 12.9775 18.7992 12.9678 18.6954 12.9581L18.6954 12.9581L18.6953 12.9581C18.6067 12.9499 18.5179 12.9416 18.4289 12.9374C18.2768 12.9299 18.1238 12.9366 17.9808 13.0484L17.9812 13.0488C18.0501 13.1008 18.1179 13.1508 18.1844 13.1999ZM4.62169 10.5007L4.62151 10.5003L4.62192 10.5007L4.62169 10.5007ZM4.62169 10.5007C4.69397 10.6594 4.63665 10.8075 4.58183 10.9492L4.58182 10.9492C4.57541 10.9657 4.56903 10.9822 4.5629 10.9986C4.5368 11.0681 4.50986 11.1373 4.48292 11.2064C4.36744 11.5028 4.25215 11.7987 4.20463 12.1179C4.05167 13.1399 4.31602 14.0589 4.94653 14.8561C5.97522 16.157 7.32395 16.8179 8.99853 16.7638C9.29654 16.7543 9.59497 16.7098 9.86929 16.5963C10.8286 16.1994 11.7413 15.7318 12.2837 14.7796C13.2978 12.999 12.4973 10.5127 10.6395 9.65943L10.6158 9.64873C10.5732 9.62962 10.53 9.61021 10.4936 9.58254C9.76829 9.03099 8.94242 8.98278 8.08497 9.10248C7.28639 9.21396 6.53235 9.48117 5.77849 9.74832L5.77848 9.74833L5.7784 9.74835C5.65537 9.79195 5.53234 9.83555 5.40913 9.87847C5.34098 9.90235 5.27161 9.92296 5.20216 9.9436L5.20216 9.9436C5.17249 9.95242 5.14281 9.96124 5.1132 9.97032C5.25877 9.62283 5.55042 9.40717 5.83636 9.19572L5.84554 9.18893C6.40291 8.77662 7.03176 8.54304 7.72794 8.49898C7.80555 8.49396 7.8826 8.48199 7.95972 8.47002L7.95972 8.47002C7.99741 8.46416 8.03512 8.45831 8.07292 8.45326C8.22338 8.42915 8.37384 8.4304 8.5243 8.45326C9.71675 8.54304 10.8273 8.87014 11.7675 9.6374C12.5252 10.2554 13.0913 11.0115 13.285 11.9978C13.3083 12.1169 13.3189 12.2386 13.3296 12.3603C13.3345 12.4165 13.3395 12.4726 13.3456 12.5285C13.3677 12.6811 13.3689 12.834 13.3448 12.9866C13.2908 13.5456 13.1561 14.0789 12.9317 14.5988C12.6303 15.2971 12.1561 15.8578 11.575 16.312C11.0676 16.709 10.4786 16.9879 9.83853 17.1383C9.55497 17.2052 9.2679 17.2371 8.98063 17.2691L8.98036 17.2692C8.89802 17.2783 8.81566 17.2875 8.73336 17.2975C8.64362 17.2764 8.55251 17.2796 8.46136 17.2827C8.37098 17.2858 8.28056 17.2889 8.19138 17.2684C7.12195 17.2003 6.17556 16.8353 5.33265 16.1599C4.45691 15.4579 3.92574 14.566 3.71459 13.4749C3.65973 13.1919 3.66181 12.9018 3.67303 12.6133C3.69201 12.5733 3.69 12.5307 3.68799 12.4881C3.68594 12.4449 3.6839 12.4017 3.70379 12.361L3.70526 12.3453C3.75503 11.8097 3.80502 11.2719 4.1668 10.834C4.18682 10.8097 4.20621 10.7841 4.22573 10.7584L4.22573 10.7584L4.22573 10.7584C4.32369 10.6293 4.42462 10.4963 4.62169 10.5007ZM6.22435 11.6101C6.52195 11.6056 6.77631 11.7161 6.99785 11.9069C7.28214 12.1513 7.4646 12.4684 7.60093 12.8096C7.71066 13.0852 7.64124 13.3537 7.50409 13.6048C7.21273 14.1393 6.6458 14.4206 6.0394 14.3637C5.9676 14.357 5.89562 14.3525 5.8237 14.3479C5.62748 14.3356 5.43167 14.3232 5.24097 14.2673C4.64329 14.0927 4.3885 13.6459 4.54021 13.0428C4.7314 12.2826 5.52235 11.6097 6.22435 11.6101ZM6.78092 13.1895H6.78096C6.80508 13.1897 6.82918 13.1899 6.85227 13.1951C7.02975 13.2346 7.21221 13.2757 7.25959 13.4885C7.2891 13.6215 7.06715 13.9108 6.91005 13.9669C6.88137 13.9773 6.85934 13.9798 6.83523 13.9607C6.81736 13.9465 6.79935 13.9323 6.78133 13.9182L6.78112 13.9181C6.63069 13.8001 6.47954 13.6816 6.40422 13.4973C6.32442 13.3023 6.45992 13.1843 6.74961 13.1889H6.7492C6.75972 13.1894 6.77033 13.1894 6.78092 13.1895ZM16.7057 21.6464C16.6738 21.5024 16.6422 21.3595 16.6655 21.2092L16.6647 21.2088C16.6824 21.1739 16.6813 21.1363 16.6803 21.0987C16.6792 21.0605 16.6781 21.0222 16.6967 20.9868C16.7287 20.5857 17.0022 20.3451 17.2873 20.1206C17.4546 19.9888 17.6363 19.8782 17.8181 19.7674C18.0394 19.6327 18.2608 19.4978 18.4565 19.3247C18.5375 19.2528 18.5803 19.195 18.5458 19.0807C18.5309 19.0313 18.5165 18.9818 18.5021 18.9322L18.502 18.932C18.4516 18.7591 18.4012 18.5864 18.3318 18.4195C18.0043 17.6331 17.4906 16.9872 16.8276 16.4606C15.9968 15.8006 15.0595 15.4186 13.9847 15.4377C13.5907 15.4448 13.2012 15.4826 12.9444 15.855C12.9061 15.9104 12.8499 15.9532 12.7935 15.9961L12.7935 15.9961L12.7935 15.9961C12.7665 16.0166 12.7396 16.0371 12.7145 16.0591C12.5764 16.1801 12.4354 16.298 12.2943 16.4158L12.2942 16.4159C11.9135 16.734 11.5328 17.0522 11.2095 17.4327C10.9452 17.7441 10.7473 18.0882 10.7174 18.508C10.6966 18.6331 10.6945 18.7578 10.7182 18.8829C10.7425 19.226 10.7451 19.2265 11.0646 19.289L11.094 19.2948L11.1229 19.3005C11.2286 19.3212 11.337 19.3425 11.4402 19.4008C11.8317 19.6219 12.0503 19.9548 12.1355 20.3862C12.1803 20.6121 12.2039 20.8408 12.2274 21.0696L12.2274 21.0697C12.2548 21.3357 12.2822 21.6017 12.3429 21.8634C12.4352 22.2599 12.5969 22.6015 12.9701 22.8148C13.2465 22.9731 13.407 22.9852 13.5329 22.8044C13.7054 22.5562 13.9544 22.4665 14.2341 22.4561C14.5343 22.445 14.8167 22.5286 15.0991 22.6123L15.0991 22.6123C15.2299 22.6511 15.3608 22.6898 15.4934 22.7192C15.7067 22.7666 15.9199 22.8065 16.141 22.7645C16.5924 22.6784 16.7931 22.0708 16.7254 21.7379C16.7192 21.7073 16.7124 21.6769 16.7057 21.6465L16.7057 21.6464ZM11.9982 17.3921C11.5298 17.5267 11.1558 17.7682 11.0656 18.2973V18.2977C11.0843 18.3692 11.0851 18.4403 11.0652 18.5118C11.1541 19.0247 11.5032 19.2786 11.9654 19.4274C12.1213 19.4777 12.2464 19.4677 12.3898 19.373C12.8786 19.0508 13.4301 18.9478 14.0049 18.9789C14.4848 19.0051 14.9563 19.0967 15.4275 19.1883L15.4276 19.1883L15.4278 19.1883C15.5099 19.2043 15.592 19.2202 15.6741 19.2358C16.2107 19.3376 16.7556 19.4274 17.2926 19.2919L17.3435 19.2791L17.3436 19.2791L17.3436 19.2791C17.6471 19.2029 17.7953 19.1656 17.8531 19.0724C17.9083 18.9834 17.8812 18.8435 17.8283 18.5702L17.8179 18.5168C17.6816 17.8098 17.1608 17.3463 16.4567 17.3118C16.3046 17.3339 16.1521 17.3335 16 17.3118C15.9452 17.317 15.8904 17.3215 15.8356 17.326L15.8355 17.326C15.7259 17.3351 15.6163 17.3441 15.5074 17.358C15.2844 17.3864 15.0627 17.4241 14.8411 17.4618C14.415 17.5343 13.9888 17.6068 13.5527 17.6136C13.1541 17.6198 12.7668 17.5932 12.3931 17.4511C12.2643 17.402 12.1288 17.3546 11.9982 17.3921ZM15.9215 22.2672C16.3404 22.0233 16.5345 21.6509 16.5408 21.1064L16.5412 21.106C16.5096 20.6184 16.3292 20.1338 15.8857 19.7772C15.697 19.6255 15.4734 19.5532 15.2519 19.6845C15.0058 19.8308 14.8392 20.0557 14.8379 20.3549C14.8365 20.5912 14.8553 20.828 14.874 21.0644L14.8832 21.1812C14.9044 21.4559 14.9277 21.7323 15.047 21.9867C15.2178 22.3516 15.579 22.4667 15.9215 22.2672ZM14.3449 20.9019C14.3482 21.1388 14.3171 21.3686 14.2223 21.5889C13.9879 22.1355 13.5698 22.2373 13.1263 22.2369C12.9234 22.2369 12.8162 22.1051 12.7958 21.884C12.7767 21.6762 12.8133 21.4746 12.8499 21.2729L12.8499 21.2728C12.8626 21.203 12.8753 21.1332 12.8856 21.0632C12.8936 21.0088 12.901 20.9544 12.9084 20.8999C12.9518 20.5795 12.995 20.2598 13.1716 19.9742C13.1875 19.9485 13.203 19.922 13.2186 19.8955C13.3229 19.7174 13.4297 19.5352 13.6753 19.5432C13.9508 19.5523 14.0597 19.7826 14.1593 19.9936L14.1612 19.9975C14.2959 20.2818 14.3507 20.5868 14.3449 20.9019Z" fill="#0E2F4E"/>
<path d="M20.4829 16.9238V17.0738H20.5099L20.5352 17.0644L20.4829 16.9238ZM20.0664 16.9238L20.0089 17.0623L20.0365 17.0738H20.0664V16.9238ZM20.6874 16.9234L20.6405 17.0658L20.6842 17.0802L20.7284 17.0676L20.6874 16.9234ZM20.7277 16.9112L20.7721 17.0545L20.7752 17.0535L20.7277 16.9112ZM20.7278 16.9112L20.6826 16.7681L20.6803 16.7689L20.7278 16.9112ZM20.7278 16.9112L20.6834 16.7679L20.6826 16.7681L20.7278 16.9112ZM20.8237 16.886L20.7992 16.738L20.7984 16.7381L20.8237 16.886ZM22.0606 16.531L21.9977 16.3949L21.9976 16.3949L22.0606 16.531ZM23.6492 15.4441L23.755 15.5504L23.755 15.5504L23.6492 15.4441ZM24.3641 14.5131L24.2356 14.4357L24.2355 14.4358L24.3641 14.5131ZM24.8828 12.8693L24.7345 12.8452L24.7336 12.8532L24.8828 12.8693ZM24.8844 12.3614L24.7356 12.3804L24.7358 12.3815L24.8844 12.3614ZM20.1479 7.95525L20.1315 8.10444L20.1366 8.10482L20.1479 7.95525ZM19.3997 7.95276L19.4042 8.10285L19.4112 8.10232L19.3997 7.95276ZM18.2638 8.14478L18.3207 8.28356L18.3208 8.28354L18.2638 8.14478ZM15.977 9.83723L15.8595 9.74396L15.8595 9.74399L15.977 9.83723ZM15.0352 12.0704L15.1827 12.0974L15.1845 12.0879L15.185 12.0783L15.0352 12.0704ZM15.0352 12.4457L15.1847 12.4342L15.1841 12.4264L15.1827 12.4188L15.0352 12.4457ZM15.046 12.6914L15.1961 12.6914L15.196 12.6873L15.046 12.6914ZM15.046 12.6914H14.896L14.8961 12.6956L15.046 12.6914ZM15.0834 13.1423L14.9361 13.1708L14.9361 13.1709L15.0834 13.1423ZM15.9267 14.9121L15.8144 15.0116L15.8144 15.0116L15.9267 14.9121ZM17.3266 16.0788L17.2522 16.209L17.2522 16.2091L17.3266 16.0788ZM19.7726 16.8934L19.8303 16.755L19.8084 16.7459L19.7849 16.7439L19.7726 16.8934ZM19.9193 16.9086L19.9262 17.0584L19.9262 17.0584L19.9193 16.9086ZM15.7841 12.1551L15.6342 12.1493L15.6316 12.2148L15.6779 12.2611L15.7841 12.1551ZM17.8934 9.10895L17.8289 8.97354L17.8289 8.97355L17.8934 9.10895ZM15.7845 12.1555L15.9345 12.1549L15.9342 12.0932L15.8906 12.0495L15.7845 12.1555ZM16.2409 14.1302L16.3738 14.0608L16.3738 14.0607L16.2409 14.1302ZM19.9209 16.1456L19.8977 15.9974L19.8975 15.9974L19.9209 16.1456ZM20.3747 16.1277L20.3627 16.2773L20.3629 16.2773L20.3747 16.1277ZM21.5285 16.0558L21.5613 16.2022L21.5613 16.2022L21.5285 16.0558ZM24.263 11.8958L24.4103 11.8674L24.4103 11.8673L24.263 11.8958ZM23.4026 10.1937L23.2803 10.2806L23.2803 10.2806L23.4026 10.1937ZM22.29 9.18584L22.2187 9.3178L22.2187 9.31782L22.29 9.18584ZM18.1845 13.2L18.0932 13.319L18.0945 13.32L18.1845 13.2ZM18.1844 13.1999L18.2757 13.0809L18.2735 13.0792L18.1844 13.1999ZM18.1845 13.2L18.0945 13.32L18.0954 13.3207L18.1845 13.2ZM18.6068 13.5243L18.7027 13.409L18.7027 13.409L18.6068 13.5243ZM18.5299 13.9873L18.579 14.129L18.5791 14.129L18.5299 13.9873ZM17.2078 14.1174L17.237 13.9703L17.2369 13.9702L17.2078 14.1174ZM16.1674 12.7699L16.3169 12.7825L16.3169 12.7825L16.1674 12.7699ZM17.1005 11.2113L17.0196 11.085L17.0195 11.085L17.1005 11.2113ZM18.4168 11.2591L18.3285 11.3803L18.3285 11.3803L18.4168 11.2591ZM19.303 12.6182L19.1576 12.6551L19.1576 12.6551L19.303 12.6182ZM19.007 12.9806L19.0118 12.8307L19.0116 12.8307L19.007 12.9806ZM18.6954 12.9581L18.6707 13.1065L18.6815 13.1075L18.6954 12.9581ZM18.6954 12.9581L18.7201 12.8097L18.7078 12.8087L18.6954 12.9581ZM18.6953 12.9581L18.6814 13.1075L18.6829 13.1076L18.6953 12.9581ZM18.4289 12.9374L18.4215 13.0872L18.4218 13.0872L18.4289 12.9374ZM17.9808 13.0484L17.8884 12.9302L17.7549 13.0346L17.8748 13.1544L17.9808 13.0484ZM17.9812 13.0488L17.8752 13.1549L17.8825 13.1622L17.8909 13.1685L17.9812 13.0488ZM4.62151 10.5003L4.7276 10.3942L4.48501 10.5625L4.62151 10.5003ZM4.62192 10.5007L4.61848 10.6506L4.99244 10.6592L4.72802 10.3946L4.62192 10.5007ZM4.58183 10.9492L4.72163 11.0035L4.72171 11.0033L4.58183 10.9492ZM4.58182 10.9492L4.44202 10.8948L4.44193 10.895L4.58182 10.9492ZM4.5629 10.9986L4.70333 11.0513L4.7034 11.0511L4.5629 10.9986ZM4.48292 11.2064L4.62269 11.2608L4.62269 11.2608L4.48292 11.2064ZM4.20463 12.1179L4.35297 12.1401L4.35299 12.14L4.20463 12.1179ZM4.94653 14.8561L5.06419 14.763L5.06418 14.763L4.94653 14.8561ZM8.99853 16.7638L8.99372 16.6139L8.9937 16.6139L8.99853 16.7638ZM9.86929 16.5963L9.92662 16.735L9.92664 16.7349L9.86929 16.5963ZM12.2837 14.7796L12.414 14.8539L12.414 14.8538L12.2837 14.7796ZM10.6395 9.65943L10.7021 9.52311L10.7012 9.52275L10.6395 9.65943ZM10.6158 9.64873L10.6776 9.51204L10.6772 9.51189L10.6158 9.64873ZM10.4936 9.58254L10.4028 9.70193L10.4028 9.70198L10.4936 9.58254ZM8.08497 9.10248L8.10571 9.25104L8.10571 9.25104L8.08497 9.10248ZM5.77849 9.74832L5.72838 9.60694L5.72804 9.60706L5.77849 9.74832ZM5.77848 9.74833L5.8284 9.88978L5.82893 9.88959L5.77848 9.74833ZM5.7784 9.74835L5.72848 9.6069L5.7283 9.60697L5.7784 9.74835ZM5.40913 9.87847L5.35979 9.73681L5.35952 9.73691L5.40913 9.87847ZM5.20216 9.9436L5.24337 10.0878L5.24489 10.0874L5.20216 9.9436ZM5.20216 9.9436L5.16095 9.79937L5.15943 9.79982L5.20216 9.9436ZM5.1132 9.97032L4.97485 9.91236L4.85117 10.2076L5.15718 10.1137L5.1132 9.97032ZM5.83636 9.19572L5.92555 9.31633L5.92555 9.31633L5.83636 9.19572ZM5.84554 9.18893L5.93473 9.30954L5.93475 9.30952L5.84554 9.18893ZM7.72794 8.49898L7.73742 8.64868L7.73764 8.64867L7.72794 8.49898ZM7.95972 8.47002L7.98273 8.61825L7.98438 8.61798L7.95972 8.47002ZM7.95972 8.47002L7.9367 8.32178L7.93506 8.32206L7.95972 8.47002ZM8.07292 8.45326L8.09279 8.60199L8.09665 8.60137L8.07292 8.45326ZM8.5243 8.45326L8.5017 8.60198L8.51304 8.60284L8.5243 8.45326ZM11.7675 9.6374L11.6726 9.75361L11.6727 9.75364L11.7675 9.6374ZM13.285 11.9978L13.4322 11.969L13.4321 11.9689L13.285 11.9978ZM13.3296 12.3603L13.479 12.3472L13.479 12.3472L13.3296 12.3603ZM13.3456 12.5285L13.1965 12.545L13.1972 12.55L13.3456 12.5285ZM13.3448 12.9866L13.1964 12.9631L13.1955 12.9721L13.3448 12.9866ZM12.9317 14.5988L12.7939 14.5394L12.7939 14.5394L12.9317 14.5988ZM11.575 16.312L11.4827 16.1939L11.4826 16.1939L11.575 16.312ZM9.83853 17.1383L9.8042 16.9923L9.80411 16.9923L9.83853 17.1383ZM8.98063 17.2691L8.99658 17.4183L8.99723 17.4182L8.98063 17.2691ZM8.98036 17.2692L8.96441 17.12L8.96376 17.1201L8.98036 17.2692ZM8.73336 17.2975L8.69906 17.4435L8.725 17.4496L8.75145 17.4464L8.73336 17.2975ZM8.46136 17.2827L8.45621 17.1328L8.45621 17.1328L8.46136 17.2827ZM8.19138 17.2684L8.22496 17.1222L8.21308 17.1195L8.20092 17.1187L8.19138 17.2684ZM5.33265 16.1599L5.23883 16.277L5.23886 16.277L5.33265 16.1599ZM3.71459 13.4749L3.86186 13.4464L3.86185 13.4464L3.71459 13.4749ZM3.67303 12.6133L3.5375 12.5491L3.52434 12.5768L3.52314 12.6075L3.67303 12.6133ZM3.68799 12.4881L3.53815 12.4952L3.68799 12.4881ZM3.70379 12.361L3.8385 12.427L3.8506 12.4023L3.85314 12.3749L3.70379 12.361ZM3.70526 12.3453L3.85461 12.3591L3.85461 12.3591L3.70526 12.3453ZM4.1668 10.834L4.28244 10.9295L4.28257 10.9294L4.1668 10.834ZM4.22573 10.7584L4.34523 10.8491L4.34573 10.8484L4.22573 10.7584ZM4.22573 10.7584L4.10622 10.6678L4.10573 10.6684L4.22573 10.7584ZM6.99785 11.9069L6.89996 12.0206L6.90006 12.0206L6.99785 11.9069ZM6.22435 11.6101L6.22426 11.7602L6.22666 11.7601L6.22435 11.6101ZM7.60093 12.8096L7.74029 12.7542L7.74022 12.754L7.60093 12.8096ZM7.50409 13.6048L7.37245 13.5328L7.37238 13.533L7.50409 13.6048ZM6.0394 14.3637L6.05342 14.2144L6.05331 14.2143L6.0394 14.3637ZM5.8237 14.3479L5.83313 14.1982L5.83313 14.1982L5.8237 14.3479ZM5.24097 14.2673L5.2832 14.1233L5.28302 14.1233L5.24097 14.2673ZM4.54021 13.0428L4.68568 13.0794L4.68568 13.0794L4.54021 13.0428ZM6.78096 13.1895L6.78211 13.0395H6.78096V13.1895ZM6.78092 13.1895L6.77977 13.3395H6.78092V13.1895ZM6.85227 13.1951L6.81935 13.3414L6.8197 13.3415L6.85227 13.1951ZM7.25959 13.4885L7.40603 13.456L7.40601 13.4559L7.25959 13.4885ZM6.91005 13.9669L6.85959 13.8257L6.85895 13.8259L6.91005 13.9669ZM6.83523 13.9607L6.74181 14.078L6.74202 14.0782L6.83523 13.9607ZM6.78133 13.9182L6.87387 13.8002L6.87373 13.8001L6.78133 13.9182ZM6.78112 13.9181L6.68859 14.0361L6.68872 14.0362L6.78112 13.9181ZM6.40422 13.4973L6.54308 13.4405L6.54304 13.4404L6.40422 13.4973ZM6.74961 13.1889V13.3389L6.75198 13.0389L6.74961 13.1889ZM6.7492 13.1889V13.0389L6.74197 13.3387L6.7492 13.1889ZM16.6655 21.2092L16.8137 21.2322L16.8305 21.1241L16.7327 21.0751L16.6655 21.2092ZM16.7057 21.6464L16.5592 21.6788L16.5594 21.6795L16.7057 21.6464ZM16.6647 21.2088L16.531 21.1407L16.4626 21.2752L16.5975 21.3429L16.6647 21.2088ZM16.6803 21.0987L16.8302 21.0944L16.8302 21.0944L16.6803 21.0987ZM16.6967 20.9868L16.8294 21.0567L16.8438 21.0295L16.8462 20.9987L16.6967 20.9868ZM17.2873 20.1206L17.3801 20.2385L17.3802 20.2385L17.2873 20.1206ZM17.8181 19.7674L17.7401 19.6393L17.7401 19.6393L17.8181 19.7674ZM18.4565 19.3247L18.5559 19.4371L18.556 19.4369L18.4565 19.3247ZM18.5458 19.0807L18.4022 19.124L18.4022 19.1241L18.5458 19.0807ZM18.5021 18.9322L18.6461 18.8902L18.646 18.89L18.5021 18.9322ZM18.502 18.932L18.358 18.9739L18.358 18.9742L18.502 18.932ZM18.3318 18.4195L18.4703 18.3619L18.4703 18.3618L18.3318 18.4195ZM16.8276 16.4606L16.7343 16.578L16.7343 16.578L16.8276 16.4606ZM13.9847 15.4377L13.982 15.2877L13.982 15.2877L13.9847 15.4377ZM12.9444 15.855L13.0678 15.9402L13.0678 15.9402L12.9444 15.855ZM12.7935 15.9961L12.8835 16.1161L12.8844 16.1154L12.7935 15.9961ZM12.7935 15.9961L12.7035 15.8761L12.7027 15.8767L12.7935 15.9961ZM12.7145 16.0591L12.8134 16.1719L12.8134 16.1719L12.7145 16.0591ZM12.2943 16.4158L12.3893 16.5319L12.3905 16.5309L12.2943 16.4158ZM12.2942 16.4159L12.1992 16.2998L12.198 16.3008L12.2942 16.4159ZM11.2095 17.4327L11.0952 17.3356L11.0952 17.3357L11.2095 17.4327ZM10.7174 18.508L10.866 18.5327L10.867 18.5187L10.7174 18.508ZM10.7182 18.8829L10.8679 18.8723L10.8672 18.8636L10.8656 18.855L10.7182 18.8829ZM11.0646 19.289L11.0934 19.1418L11.0934 19.1418L11.0646 19.289ZM11.094 19.2948L11.123 19.1476L11.1228 19.1476L11.094 19.2948ZM11.1229 19.3005L11.0939 19.4476L11.094 19.4477L11.1229 19.3005ZM11.4402 19.4008L11.514 19.2702L11.5139 19.2701L11.4402 19.4008ZM12.1355 20.3862L11.9884 20.4153L11.9884 20.4154L12.1355 20.3862ZM12.2274 21.0696L12.0782 21.085L12.0783 21.0862L12.2274 21.0696ZM12.2274 21.0697L12.3766 21.0543L12.3765 21.0531L12.2274 21.0697ZM12.3429 21.8634L12.1968 21.8973L12.1968 21.8974L12.3429 21.8634ZM12.9701 22.8148L13.0447 22.6846L13.0445 22.6845L12.9701 22.8148ZM13.5329 22.8044L13.656 22.8901L13.6561 22.89L13.5329 22.8044ZM14.2341 22.4561L14.2285 22.3062L14.2285 22.3062L14.2341 22.4561ZM15.0991 22.6123L15.0565 22.7561L15.0579 22.7565L15.0991 22.6123ZM15.0991 22.6123L15.1417 22.4685L15.1403 22.4681L15.0991 22.6123ZM15.4934 22.7192L15.526 22.5727L15.5258 22.5727L15.4934 22.7192ZM16.141 22.7645L16.169 22.9118L16.1691 22.9118L16.141 22.7645ZM16.7254 21.7379L16.8724 21.708L16.8724 21.7079L16.7254 21.7379ZM16.7057 21.6465L16.8522 21.6141L16.852 21.6134L16.7057 21.6465ZM11.0656 18.2973L10.9177 18.2721L10.9156 18.2846V18.2973H11.0656ZM11.9982 17.3921L11.9569 17.2479L11.9568 17.2479L11.9982 17.3921ZM11.0656 18.2977H10.9156V18.317L10.9205 18.3357L11.0656 18.2977ZM11.0652 18.5118L10.9207 18.4715L10.9116 18.5041L10.9174 18.5374L11.0652 18.5118ZM11.9654 19.4274L12.0115 19.2847L12.0114 19.2846L11.9654 19.4274ZM12.3898 19.373L12.3072 19.2477L12.3071 19.2478L12.3898 19.373ZM14.0049 18.9789L14.0131 18.8292L14.013 18.8292L14.0049 18.9789ZM15.4275 19.1883L15.457 19.0412L15.4562 19.041L15.4275 19.1883ZM15.4276 19.1883L15.3982 19.3354L15.3986 19.3354L15.4276 19.1883ZM15.4278 19.1883L15.3989 19.3355L15.3992 19.3356L15.4278 19.1883ZM15.6741 19.2358L15.6461 19.3832L15.6461 19.3832L15.6741 19.2358ZM17.2926 19.2919L17.256 19.1464L17.2559 19.1465L17.2926 19.2919ZM17.3435 19.2791L17.3141 19.1318L17.307 19.1336L17.3435 19.2791ZM17.3436 19.2791L17.373 19.4264L17.3801 19.4246L17.3436 19.2791ZM17.8531 19.0724L17.7257 18.9933L17.7257 18.9934L17.8531 19.0724ZM17.8283 18.5702L17.681 18.5987L17.681 18.5987L17.8283 18.5702ZM17.8179 18.5168L17.6707 18.5452L17.6707 18.5452L17.8179 18.5168ZM16.4567 17.3118L16.4641 17.162L16.4496 17.1613L16.4352 17.1634L16.4567 17.3118ZM16 17.3118L16.0211 17.1633L16.0036 17.1608L15.986 17.1625L16 17.3118ZM15.8356 17.326L15.8233 17.1765L15.8231 17.1765L15.8356 17.326ZM15.8355 17.326L15.8479 17.4755L15.848 17.4755L15.8355 17.326ZM15.5074 17.358L15.4885 17.2092L15.4885 17.2092L15.5074 17.358ZM14.8411 17.4618L14.8159 17.3139L14.8159 17.3139L14.8411 17.4618ZM13.5527 17.6136L13.5551 17.7636L13.5551 17.7636L13.5527 17.6136ZM12.3931 17.4511L12.3397 17.5913L12.3398 17.5913L12.3931 17.4511ZM16.5408 21.1064L16.4347 21.0003L16.3915 21.0435L16.3908 21.1047L16.5408 21.1064ZM15.9215 22.2672L15.846 22.1376L15.846 22.1376L15.9215 22.2672ZM16.5412 21.106L16.6472 21.212L16.6952 21.164L16.6909 21.0963L16.5412 21.106ZM15.8857 19.7772L15.9797 19.6603L15.9797 19.6603L15.8857 19.7772ZM15.2519 19.6845L15.1754 19.5555L15.1752 19.5556L15.2519 19.6845ZM14.8379 20.3549L14.9879 20.3558L14.9879 20.3555L14.8379 20.3549ZM14.874 21.0644L15.0236 21.0527L15.0236 21.0526L14.874 21.0644ZM14.8832 21.1812L15.0328 21.1697L15.0327 21.1694L14.8832 21.1812ZM15.047 21.9867L15.1828 21.9231L15.1828 21.923L15.047 21.9867ZM14.2223 21.5889L14.0845 21.5297L14.0844 21.5298L14.2223 21.5889ZM14.3449 20.9019L14.1949 20.8991L14.1949 20.904L14.3449 20.9019ZM13.1263 22.2369L13.1264 22.0869H13.1263V22.2369ZM12.7958 21.884L12.9452 21.8703L12.9452 21.8703L12.7958 21.884ZM12.8499 21.2729L12.7024 21.2455L12.7023 21.2461L12.8499 21.2729ZM12.8499 21.2728L12.9974 21.3002L12.9975 21.2996L12.8499 21.2728ZM12.8856 21.0632L13.034 21.0851L13.034 21.0851L12.8856 21.0632ZM12.9084 20.8999L12.7597 20.8798L12.7597 20.8798L12.9084 20.8999ZM13.1716 19.9742L13.044 19.8953L13.044 19.8953L13.1716 19.9742ZM13.2186 19.8955L13.0892 19.8196L13.0892 19.8196L13.2186 19.8955ZM13.6753 19.5432L13.6803 19.3933L13.6802 19.3933L13.6753 19.5432ZM14.1593 19.9936L14.0237 20.0576L14.0237 20.0576L14.1593 19.9936ZM14.1612 19.9975L14.0256 20.0616L14.0256 20.0617L14.1612 19.9975ZM20.4829 16.7738H20.0664V17.0738H20.4829V16.7738ZM20.7343 16.7809C20.6394 16.7496 20.5357 16.7441 20.4306 16.7832L20.5352 17.0644C20.5664 17.0528 20.5991 17.0522 20.6405 17.0658L20.7343 16.7809ZM20.6833 16.7679C20.6696 16.7722 20.6578 16.7758 20.6463 16.7791L20.7284 17.0676C20.7438 17.0632 20.759 17.0586 20.7721 17.0545L20.6833 16.7679ZM20.6803 16.7689L20.6803 16.7689L20.7752 17.0535L20.7752 17.0535L20.6803 16.7689ZM20.6826 16.7681L20.6826 16.7681L20.773 17.0542L20.773 17.0542L20.6826 16.7681ZM20.7984 16.7381C20.7547 16.7456 20.7135 16.7586 20.6834 16.7679L20.7722 17.0545C20.8056 17.0441 20.828 17.0374 20.849 17.0338L20.7984 16.7381ZM21.9976 16.3949C21.6194 16.5699 21.2184 16.6684 20.7992 16.738L20.8482 17.0339C21.2811 16.9621 21.7113 16.8579 22.1236 16.6671L21.9976 16.3949ZM23.5433 15.3378C23.0932 15.7859 22.5756 16.1276 21.9977 16.3949L22.1236 16.6672C22.7286 16.3874 23.2766 16.0267 23.755 15.5504L23.5433 15.3378ZM24.2355 14.4358C24.0399 14.761 23.8144 15.068 23.5433 15.3378L23.755 15.5504C24.0476 15.2591 24.2876 14.9311 24.4926 14.5904L24.2355 14.4358ZM24.7336 12.8532C24.6726 13.4204 24.5228 13.959 24.2356 14.4357L24.4925 14.5905C24.808 14.0671 24.9675 13.4836 25.0319 12.8853L24.7336 12.8532ZM24.7358 12.3815C24.7571 12.5391 24.7593 12.6935 24.7347 12.8453L25.0308 12.8933C25.0611 12.7067 25.0575 12.5219 25.0331 12.3413L24.7358 12.3815ZM20.1366 8.10482C22.5289 8.28542 24.4057 9.80305 24.7356 12.3804L25.0332 12.3423C24.6832 9.60874 22.6779 7.99582 20.1592 7.80567L20.1366 8.10482ZM19.4112 8.10232C19.6557 8.08357 19.8949 8.07833 20.1315 8.10435L20.1643 7.80615C19.9021 7.77731 19.6425 7.7837 19.3883 7.80319L19.4112 8.10232ZM18.3208 8.28354C18.6477 8.14931 19.0196 8.11423 19.4042 8.10269L19.3952 7.80282C19.0043 7.81456 18.5865 7.85013 18.2068 8.00602L18.3208 8.28354ZM16.0945 9.9305C16.6872 9.18394 17.4424 8.64383 18.3207 8.28356L18.2069 8.006C17.2856 8.38389 16.4871 8.95352 15.8595 9.74396L16.0945 9.9305ZM15.185 12.0783C15.2281 11.2626 15.5848 10.5728 16.0945 9.93047L15.8595 9.74399C15.3276 10.4143 14.9329 11.1625 14.8854 12.0625L15.185 12.0783ZM15.1827 12.4188C15.1631 12.3115 15.1631 12.2047 15.1827 12.0974L14.8876 12.0435C14.8615 12.1864 14.8615 12.3298 14.8876 12.4727L15.1827 12.4188ZM15.196 12.6873C15.1937 12.6059 15.1914 12.5204 15.1847 12.4342L14.8856 12.4573C14.8916 12.5349 14.8938 12.613 14.8961 12.6956L15.196 12.6873ZM15.196 12.6914V12.6914H14.896V12.6914H15.196ZM15.2307 13.1139C15.2043 12.9773 15.2002 12.8393 15.196 12.6873L14.8961 12.6956C14.9002 12.8438 14.9044 13.0062 14.9361 13.1708L15.2307 13.1139ZM16.039 14.8127C15.6155 14.3344 15.3552 13.7565 15.2307 13.1138L14.9361 13.1709C15.0693 13.8582 15.3502 14.4873 15.8144 15.0116L16.039 14.8127ZM17.401 15.9486C16.8765 15.6489 16.4341 15.2587 16.039 14.8126L15.8144 15.0116C16.2257 15.4758 16.6927 15.8894 17.2522 16.209L17.401 15.9486ZM19.7849 16.7439C18.9312 16.6735 18.1544 16.3788 17.4009 15.9485L17.2522 16.2091C18.0316 16.6541 18.8509 16.9679 19.7602 17.0429L19.7849 16.7439ZM19.9124 16.7588C19.8572 16.7613 19.8417 16.7597 19.8303 16.755L19.7149 17.0319C19.7982 17.0666 19.8821 17.0605 19.9262 17.0584L19.9124 16.7588ZM20.1239 16.7852C20.0404 16.7506 19.9567 16.7567 19.9124 16.7588L19.9262 17.0584C19.9814 17.0559 19.9972 17.0575 20.0089 17.0623L20.1239 16.7852ZM15.934 12.1609C15.9828 10.9031 16.6654 9.86055 17.958 9.24435L17.8289 8.97355C16.4431 9.63417 15.6876 10.772 15.6342 12.1493L15.934 12.1609ZM15.8906 12.0495L15.8902 12.0491L15.6779 12.2611L15.6784 12.2615L15.8906 12.0495ZM16.3738 14.0607C16.0926 13.523 15.9377 12.9533 15.9345 12.1549L15.6345 12.1561C15.6379 12.9995 15.8031 13.6168 16.1079 14.1997L16.3738 14.0607ZM19.8975 15.9974C18.4429 16.2265 17.0441 15.3442 16.3738 14.0608L16.1079 14.1996C16.825 15.5729 18.3372 16.5469 19.9442 16.2938L19.8975 15.9974ZM20.3868 15.9782C20.2244 15.9652 20.0576 15.9724 19.8977 15.9974L19.944 16.2938C20.0818 16.2723 20.225 16.2662 20.3627 16.2773L20.3868 15.9782ZM21.4958 15.9094C21.1316 15.9909 20.7633 16.008 20.3866 15.9782L20.3629 16.2773C20.7643 16.309 21.1632 16.2912 21.5613 16.2022L21.4958 15.9094ZM24.1157 11.9242C24.4561 13.6884 23.2607 15.514 21.4957 15.9095L21.5613 16.2022C23.4839 15.7714 24.7815 13.7915 24.4103 11.8674L24.1157 11.9242ZM23.2803 10.2806C23.6541 10.8073 23.9968 11.3079 24.1157 11.9242L24.4103 11.8673C24.2773 11.1786 23.8951 10.6285 23.5249 10.1069L23.2803 10.2806ZM22.2187 9.31782C22.6456 9.5484 22.9947 9.8782 23.2803 10.2806L23.5249 10.1069C23.217 9.67304 22.8347 9.30957 22.3613 9.05386L22.2187 9.31782ZM17.9579 9.24436C19.3802 8.56658 20.8138 8.55857 22.2187 9.3178L22.3613 9.05388C20.8667 8.24617 19.3319 8.25728 17.8289 8.97354L17.9579 9.24436ZM18.2757 13.0809L18.2757 13.0809L18.0932 13.319L18.0932 13.319L18.2757 13.0809ZM18.2745 13.08L18.2745 13.08L18.0945 13.32L18.0945 13.32L18.2745 13.08ZM18.7027 13.409C18.5644 13.2939 18.4198 13.1872 18.2736 13.0793L18.0954 13.3207C18.2429 13.4295 18.3804 13.531 18.5108 13.6396L18.7027 13.409ZM18.5791 14.129C18.6638 14.0995 18.7401 14.0643 18.7998 14.0191C18.8603 13.9733 18.9148 13.9085 18.9295 13.8203C18.9441 13.7329 18.9142 13.6538 18.8731 13.5904C18.8323 13.5273 18.7727 13.4672 18.7027 13.409L18.5108 13.6396C18.5697 13.6886 18.6038 13.7264 18.6213 13.7534C18.6385 13.78 18.6316 13.7831 18.6336 13.771C18.6357 13.7583 18.6421 13.7623 18.6188 13.7799C18.5946 13.7982 18.5514 13.821 18.4806 13.8456L18.5791 14.129ZM17.1785 14.2645C17.6669 14.3616 18.1345 14.2832 18.579 14.129L18.4807 13.8456C18.0674 13.9889 17.6563 14.0536 17.237 13.9703L17.1785 14.2645ZM16.018 12.7573C15.9841 13.1594 16.0636 13.5005 16.2686 13.7628C16.4729 14.0242 16.7859 14.1868 17.1786 14.2645L17.2369 13.9702C16.8906 13.9017 16.6519 13.766 16.505 13.5781C16.3587 13.3909 16.2875 13.1315 16.3169 12.7825L16.018 12.7573ZM17.0195 11.085C16.4162 11.472 16.0775 12.0499 16.018 12.7573L16.3169 12.7825C16.3688 12.1657 16.6585 11.6729 17.1815 11.3375L17.0195 11.085ZM18.5052 11.1378C18.2747 10.9699 18.0274 10.8747 17.7713 10.8646C17.5148 10.8545 17.2613 10.9302 17.0196 11.085L17.1814 11.3376C17.3791 11.211 17.573 11.157 17.7595 11.1644C17.9463 11.1717 18.1375 11.2411 18.3285 11.3803L18.5052 11.1378ZM19.4484 12.5813C19.3011 12.0006 19.002 11.4999 18.5052 11.1378L18.3285 11.3803C18.7602 11.6949 19.0247 12.131 19.1576 12.6551L19.4484 12.5813ZM19.0023 13.1305C19.1474 13.1352 19.2986 13.108 19.3932 12.9929C19.4887 12.8767 19.4844 12.723 19.4483 12.5813L19.1576 12.6551C19.186 12.7669 19.1646 12.7986 19.1615 12.8023C19.1575 12.8072 19.1285 12.8344 19.0118 12.8307L19.0023 13.1305ZM18.6815 13.1075C18.7845 13.1171 18.893 13.1273 19.0025 13.1306L19.0116 12.8307C18.913 12.8277 18.8139 12.8185 18.7093 12.8088L18.6815 13.1075ZM18.6707 13.1061L18.6707 13.1061L18.7201 12.8102L18.72 12.8102L18.6707 13.1061ZM18.6829 13.1076L18.6829 13.1076L18.7078 12.8087L18.7078 12.8087L18.6829 13.1076ZM18.4218 13.0872C18.5068 13.0913 18.5922 13.0992 18.6814 13.1075L18.7093 12.8088C18.6211 12.8006 18.529 12.792 18.436 12.7876L18.4218 13.0872ZM18.0732 13.1665C18.1716 13.0896 18.2774 13.0801 18.4215 13.0872L18.4363 12.7876C18.2761 12.7797 18.076 12.7836 17.8884 12.9302L18.0732 13.1665ZM18.0873 12.9427L18.0869 12.9423L17.8748 13.1544L17.8752 13.1549L18.0873 12.9427ZM18.2735 13.0792C18.2068 13.03 18.1397 12.9805 18.0716 12.9291L17.8909 13.1685C17.9605 13.2211 18.0289 13.2715 18.0954 13.3206L18.2735 13.0792ZM4.48501 10.5625L4.4852 10.5629L4.75818 10.4385L4.758 10.438L4.48501 10.5625ZM4.72802 10.3946L4.7276 10.3942L4.51541 10.6063L4.51582 10.6067L4.72802 10.3946ZM4.61825 10.6506L4.61848 10.6506L4.62536 10.3507L4.62513 10.3507L4.61825 10.6506ZM4.72171 11.0033C4.77291 10.871 4.86037 10.6629 4.75821 10.4385L4.48518 10.5628C4.52757 10.6559 4.50038 10.744 4.44194 10.895L4.72171 11.0033ZM4.72162 11.0035L4.72163 11.0035L4.44202 10.8948L4.44202 10.8948L4.72162 11.0035ZM4.7034 11.0511C4.70918 11.0357 4.71524 11.02 4.72171 11.0033L4.44193 10.895C4.43558 10.9114 4.42889 10.9287 4.42241 10.9461L4.7034 11.0511ZM4.62269 11.2608C4.64957 11.1919 4.67685 11.1218 4.70333 11.0513L4.42248 10.9459C4.39676 11.0143 4.37014 11.0827 4.34315 11.1519L4.62269 11.2608ZM4.35299 12.14C4.39763 11.8402 4.50622 11.5598 4.62269 11.2608L4.34315 11.1519C4.22866 11.4458 4.10667 11.7573 4.05626 12.0958L4.35299 12.14ZM5.06418 14.763C4.45827 13.997 4.20642 13.1194 4.35297 12.1401L4.05628 12.0957C3.89693 13.1605 4.17376 14.1208 4.82888 14.9491L5.06418 14.763ZM8.9937 16.6139C7.3687 16.6663 6.06467 16.0283 5.06419 14.763L4.82887 14.9491C5.88577 16.2857 7.2792 16.9694 9.00337 16.9138L8.9937 16.6139ZM9.81195 16.4577C9.55992 16.562 9.28095 16.6047 8.99372 16.6139L9.00334 16.9138C9.31214 16.9039 9.63001 16.8576 9.92662 16.735L9.81195 16.4577ZM12.1534 14.7054C11.6379 15.6104 10.7682 16.0621 9.81193 16.4577L9.92664 16.7349C10.889 16.3368 11.8447 15.8533 12.414 14.8539L12.1534 14.7054ZM10.5768 9.79574C12.3547 10.6123 13.124 13.0012 12.1534 14.7054L12.414 14.8538C13.4717 12.9969 12.64 10.4132 10.7021 9.52312L10.5768 9.79574ZM10.554 9.78541L10.5777 9.79611L10.7012 9.52275L10.6776 9.51204L10.554 9.78541ZM10.4028 9.70198C10.4553 9.74184 10.5148 9.76783 10.5543 9.78557L10.6772 9.51189C10.6316 9.49141 10.6047 9.47859 10.5843 9.46309L10.4028 9.70198ZM8.10571 9.25104C8.94595 9.13374 9.72363 9.18548 10.4028 9.70193L10.5844 9.46314C9.81294 8.8765 8.93889 8.83182 8.06423 8.95392L8.10571 9.25104ZM5.82859 9.88971C6.58482 9.62172 7.32466 9.36007 8.10571 9.25104L8.06424 8.95392C7.24813 9.06785 6.47988 9.34063 5.72838 9.60694L5.82859 9.88971ZM5.82893 9.88959L5.82894 9.88958L5.72804 9.60706L5.72803 9.60707L5.82893 9.88959ZM5.82833 9.8898L5.8284 9.88978L5.72855 9.60688L5.72848 9.6069L5.82833 9.8898ZM5.45847 10.0201C5.58213 9.97705 5.70554 9.93331 5.82851 9.88974L5.7283 9.60697C5.6052 9.65059 5.48256 9.69405 5.35979 9.73681L5.45847 10.0201ZM5.24489 10.0874C5.31376 10.0669 5.38661 10.0453 5.45874 10.02L5.35952 9.73691C5.29536 9.75939 5.22947 9.779 5.15943 9.79982L5.24489 10.0874ZM5.24337 10.0878L5.24337 10.0878L5.16095 9.79937L5.16095 9.79937L5.24337 10.0878ZM5.15718 10.1137C5.18606 10.1049 5.21511 10.0962 5.24489 10.0874L5.15943 9.79982C5.12987 9.8086 5.09955 9.81761 5.06921 9.82691L5.15718 10.1137ZM5.74718 9.07512C5.46678 9.28246 5.1389 9.52078 4.97485 9.91236L5.25155 10.0283C5.37865 9.72488 5.63405 9.53188 5.92555 9.31633L5.74718 9.07512ZM5.75636 9.06832L5.74718 9.07512L5.92555 9.31633L5.93473 9.30954L5.75636 9.06832ZM7.71847 8.34928C6.99297 8.39519 6.33653 8.63915 5.75634 9.06834L5.93475 9.30952C6.46929 8.9141 7.07055 8.69088 7.73742 8.64868L7.71847 8.34928ZM7.9367 8.32179C7.85846 8.33394 7.78805 8.34478 7.71825 8.3493L7.73764 8.64867C7.82306 8.64314 7.90674 8.63004 7.98273 8.61824L7.9367 8.32179ZM7.93506 8.32206L7.93506 8.32206L7.98438 8.61798L7.98438 8.61798L7.93506 8.32206ZM8.05306 8.30458C8.01342 8.30988 7.97413 8.31598 7.9367 8.32179L7.98274 8.61824C8.02069 8.61235 8.05682 8.60674 8.09278 8.60194L8.05306 8.30458ZM8.54683 8.30496C8.38228 8.27996 8.21616 8.2784 8.04919 8.30515L8.09665 8.60137C8.23059 8.57991 8.3654 8.58084 8.50177 8.60156L8.54683 8.30496ZM11.8623 9.52119C10.8915 8.7289 9.74838 8.39499 8.53556 8.30368L8.51304 8.60284C9.68512 8.69108 10.7631 9.01139 11.6726 9.75361L11.8623 9.52119ZM13.4321 11.9689C13.2298 10.9387 12.6385 10.1543 11.8623 9.52117L11.6727 9.75364C12.4119 10.3566 12.9527 11.0843 13.1378 12.0267L13.4321 11.9689ZM13.479 12.3472C13.4685 12.2269 13.4573 12.0972 13.4322 11.969L13.1377 12.0266C13.1593 12.1366 13.1694 12.2504 13.1802 12.3734L13.479 12.3472ZM13.4947 12.5121C13.4888 12.4581 13.484 12.4037 13.479 12.3472L13.1802 12.3734C13.1851 12.4293 13.1902 12.4871 13.1965 12.545L13.4947 12.5121ZM13.493 13.01C13.5196 12.8412 13.5181 12.673 13.4941 12.5071L13.1972 12.55C13.2173 12.6891 13.2182 12.8269 13.1966 12.9632L13.493 13.01ZM13.0694 14.6583C13.3002 14.1236 13.4386 13.5751 13.4941 13.001L13.1955 12.9721C13.1429 13.516 13.0121 14.0341 12.7939 14.5394L13.0694 14.6583ZM11.6674 16.4302C12.2648 15.9632 12.7565 15.3833 13.0694 14.6582L12.7939 14.5394C12.5042 15.2108 12.0474 15.7523 11.4827 16.1939L11.6674 16.4302ZM9.87285 17.2843C10.5333 17.1291 11.1423 16.841 11.6675 16.4302L11.4826 16.1939C10.9928 16.577 10.4239 16.8466 9.8042 16.9923L9.87285 17.2843ZM8.99723 17.4182C9.28304 17.3864 9.57912 17.3536 9.87295 17.2843L9.80411 16.9923C9.53082 17.0568 9.25276 17.0879 8.96403 17.1201L8.99723 17.4182ZM8.99632 17.4183L8.99658 17.4183L8.96468 17.12L8.96441 17.12L8.99632 17.4183ZM8.75145 17.4464C8.83288 17.4365 8.9145 17.4274 8.99697 17.4182L8.96376 17.1201C8.88154 17.1292 8.79843 17.1385 8.71527 17.1486L8.75145 17.4464ZM8.46651 17.4326C8.56099 17.4294 8.63198 17.4278 8.69906 17.4435L8.76766 17.1515C8.65525 17.1251 8.54403 17.1298 8.45621 17.1328L8.46651 17.4326ZM8.1578 17.4146C8.26924 17.4402 8.37939 17.4356 8.46651 17.4326L8.45621 17.1328C8.36258 17.136 8.29188 17.1376 8.22496 17.1222L8.1578 17.4146ZM5.23886 16.277C6.10585 16.9717 7.08167 17.348 8.18183 17.4181L8.20092 17.1187C7.16224 17.0525 6.24526 16.699 5.42645 16.0429L5.23886 16.277ZM3.56733 13.5034C3.78514 14.629 4.335 15.5524 5.23883 16.277L5.42647 16.0429C4.57882 15.3634 4.06633 14.503 3.86186 13.4464L3.56733 13.5034ZM3.52314 12.6075C3.51186 12.8975 3.50896 13.2023 3.56733 13.5035L3.86185 13.4464C3.8105 13.1815 3.81176 12.9061 3.82292 12.6192L3.52314 12.6075ZM3.53815 12.4952C3.53924 12.5182 3.5396 12.5301 3.53882 12.5402C3.53818 12.5485 3.53701 12.5501 3.5375 12.5491L3.80856 12.6776C3.84616 12.5983 3.83954 12.5174 3.83782 12.481L3.53815 12.4952ZM3.56907 12.2951C3.52958 12.3757 3.53641 12.4583 3.53815 12.4952L3.83782 12.481C3.83672 12.4577 3.83636 12.4458 3.83718 12.4357C3.83784 12.4274 3.83902 12.426 3.8385 12.427L3.56907 12.2951ZM3.5559 12.3314L3.55443 12.3472L3.85314 12.3749L3.85461 12.3591L3.5559 12.3314ZM4.05116 10.7385C3.65534 11.2176 3.60495 11.8036 3.5559 12.3314L3.85461 12.3591C3.90511 11.8158 3.95469 11.3263 4.28244 10.9295L4.05116 10.7385ZM4.10622 10.6678C4.08638 10.6939 4.0688 10.7171 4.05103 10.7386L4.28257 10.9294C4.30483 10.9024 4.32605 10.8744 4.34523 10.8491L4.10622 10.6678ZM4.10573 10.6684L4.10573 10.6684L4.34573 10.8484L4.34573 10.8484L4.10573 10.6684ZM4.10573 10.6684L4.10573 10.6684L4.34573 10.8484L4.34573 10.8484L4.10573 10.6684ZM4.62504 10.3507C4.34189 10.3444 4.19786 10.547 4.10623 10.6678L4.34523 10.8491C4.44952 10.7116 4.50735 10.6481 4.61835 10.6506L4.62504 10.3507ZM7.09573 11.7932C6.85134 11.5828 6.56242 11.4549 6.22205 11.4602L6.22666 11.7601C6.48147 11.7562 6.70129 11.8495 6.89996 12.0206L7.09573 11.7932ZM7.74022 12.754C7.59899 12.4005 7.40503 12.0591 7.09563 11.7931L6.90006 12.0206C7.15925 12.2435 7.33021 12.5363 7.46163 12.8653L7.74022 12.754ZM7.63572 13.6767C7.78329 13.4066 7.87348 13.0887 7.74029 12.7542L7.46157 12.8651C7.54783 13.0818 7.4992 13.3009 7.37245 13.5328L7.63572 13.6767ZM6.02537 14.513C6.68768 14.5752 7.31394 14.267 7.63579 13.6765L7.37238 13.533C7.11152 14.0115 6.60393 14.2661 6.05342 14.2144L6.02537 14.513ZM5.81426 14.4976C5.88656 14.5022 5.95629 14.5066 6.02548 14.5131L6.05331 14.2143C5.9789 14.2074 5.90468 14.2027 5.83313 14.1982L5.81426 14.4976ZM5.19873 14.4112C5.40814 14.4727 5.62078 14.4855 5.81426 14.4976L5.83313 14.1982C5.63419 14.1857 5.45519 14.1738 5.2832 14.1233L5.19873 14.4112ZM4.39474 13.0062C4.31192 13.3355 4.33613 13.6397 4.47935 13.8902C4.62259 14.1407 4.87255 14.3159 5.19891 14.4113L5.28302 14.1233C5.0117 14.044 4.83543 13.9086 4.73979 13.7413C4.64412 13.574 4.61679 13.3533 4.68568 13.0794L4.39474 13.0062ZM6.22444 11.4601C5.82777 11.4599 5.42131 11.6482 5.09353 11.927C4.76477 12.2067 4.49925 12.5907 4.39474 13.0062L4.68568 13.0794C4.77236 12.7348 4.9979 12.4022 5.28792 12.1555C5.57891 11.9079 5.91893 11.76 6.22426 11.7601L6.22444 11.4601ZM6.78096 13.0395H6.78092V13.3395H6.78096V13.0395ZM6.8852 13.0487C6.84372 13.0394 6.80325 13.0397 6.78211 13.0395L6.77981 13.3395C6.80692 13.3397 6.81464 13.3404 6.81935 13.3414L6.8852 13.0487ZM7.40601 13.4559C7.37216 13.3039 7.2854 13.2069 7.17873 13.1463C7.08191 13.0914 6.96864 13.0673 6.88485 13.0487L6.8197 13.3415C6.91338 13.3624 6.98008 13.3786 7.0307 13.4073C7.07149 13.4304 7.09964 13.4603 7.11318 13.5211L7.40601 13.4559ZM6.9605 14.1082C7.08076 14.0652 7.1975 13.9504 7.27512 13.8461C7.31629 13.7908 7.35331 13.7295 7.37834 13.6683C7.40144 13.6119 7.42335 13.5341 7.40603 13.456L7.11316 13.521C7.1106 13.5095 7.11583 13.5177 7.1007 13.5547C7.08751 13.5869 7.06475 13.6263 7.03448 13.667C6.96923 13.7546 6.89644 13.8125 6.85959 13.8257L6.9605 14.1082ZM6.74202 14.0782C6.77636 14.1054 6.81794 14.1229 6.86513 14.1248C6.90663 14.1264 6.94132 14.1151 6.96114 14.1079L6.85895 13.8259C6.85009 13.8291 6.85943 13.8243 6.87672 13.825C6.88651 13.8254 6.89706 13.8274 6.90736 13.8314C6.91738 13.8353 6.92441 13.84 6.92844 13.8432L6.74202 14.0782ZM6.68879 14.0363C6.70689 14.0505 6.72446 14.0642 6.74181 14.078L6.92865 13.8433C6.91027 13.8287 6.89182 13.8142 6.87387 13.8002L6.68879 14.0363ZM6.68872 14.0362L6.68893 14.0364L6.87373 13.8001L6.87353 13.7999L6.68872 14.0362ZM6.26536 13.554C6.3581 13.781 6.54346 13.9224 6.68859 14.0361L6.87366 13.8C6.71792 13.6779 6.60097 13.5823 6.54308 13.4405L6.26536 13.554ZM6.75198 13.0389C6.59444 13.0364 6.44123 13.0652 6.33883 13.156C6.28417 13.2045 6.24728 13.2683 6.23559 13.343C6.22427 13.4153 6.2381 13.4874 6.2654 13.5541L6.54304 13.4404C6.53044 13.4096 6.53128 13.3938 6.53198 13.3894C6.53231 13.3873 6.53243 13.3853 6.53788 13.3805C6.5557 13.3647 6.61509 13.3367 6.74724 13.3388L6.75198 13.0389ZM6.7492 13.3389H6.74961V13.0389H6.7492V13.3389ZM6.78208 13.0395C6.77096 13.0394 6.7634 13.0394 6.75642 13.039L6.74197 13.3387C6.75604 13.3394 6.76969 13.3394 6.77977 13.3395L6.78208 13.0395ZM16.5173 21.1862C16.489 21.3688 16.5283 21.5391 16.5592 21.6788L16.8521 21.614C16.8193 21.4657 16.7954 21.3502 16.8137 21.2322L16.5173 21.1862ZM16.5975 21.3429L16.5983 21.3433L16.7327 21.0751L16.7319 21.0747L16.5975 21.3429ZM16.5303 21.103C16.5306 21.1128 16.5308 21.1199 16.5308 21.1265C16.5308 21.1329 16.5305 21.1371 16.5302 21.1401C16.5297 21.1458 16.5291 21.1445 16.531 21.1407L16.7984 21.2768C16.8362 21.2024 16.8311 21.1256 16.8302 21.0944L16.5303 21.103ZM16.564 20.9169C16.5241 20.9927 16.5294 21.0712 16.5303 21.103L16.8302 21.0944C16.8299 21.0844 16.8297 21.0773 16.8297 21.0706C16.8298 21.0642 16.83 21.0599 16.8303 21.057C16.8309 21.0515 16.8314 21.0529 16.8294 21.0567L16.564 20.9169ZM17.1945 20.0028C16.9115 20.2256 16.5849 20.5023 16.5472 20.9749L16.8462 20.9987C16.8725 20.6691 17.0929 20.4646 17.3801 20.2385L17.1945 20.0028ZM17.7401 19.6393C17.5596 19.7492 17.37 19.8645 17.1945 20.0028L17.3802 20.2385C17.5391 20.1132 17.713 20.0071 17.8962 19.8955L17.7401 19.6393ZM18.3571 19.2124C18.173 19.3752 17.9632 19.5034 17.7401 19.6393L17.8962 19.8955C18.1155 19.7619 18.3485 19.6205 18.5559 19.4371L18.3571 19.2124ZM18.4022 19.1241C18.4074 19.1413 18.4079 19.1505 18.4079 19.1541C18.4078 19.1569 18.4075 19.1576 18.4071 19.1584C18.4047 19.1639 18.3958 19.178 18.3569 19.2125L18.556 19.4369C18.5982 19.3995 18.6513 19.3487 18.6819 19.2788C18.716 19.2009 18.7143 19.1199 18.6895 19.0374L18.4022 19.1241ZM18.3581 18.9742C18.3725 19.0236 18.3871 19.0738 18.4022 19.124L18.6895 19.0374C18.6748 18.9888 18.6605 18.9399 18.6461 18.8902L18.3581 18.9742ZM18.358 18.9742L18.3581 18.9745L18.646 18.89L18.6459 18.8897L18.358 18.9742ZM18.1933 18.4771C18.259 18.6351 18.3072 18.7998 18.358 18.9739L18.646 18.89C18.596 18.7184 18.5434 18.5377 18.4703 18.3619L18.1933 18.4771ZM16.7343 16.578C17.3794 17.0904 17.8765 17.7164 18.1933 18.4771L18.4703 18.3618C18.1321 17.5497 17.6017 16.8839 16.9209 16.3431L16.7343 16.578ZM13.9874 15.5877C15.0215 15.5693 15.9257 15.9357 16.7343 16.578L16.9209 16.3431C16.0679 15.6655 15.0976 15.2679 13.982 15.2877L13.9874 15.5877ZM13.0678 15.9402C13.2781 15.6354 13.5931 15.5948 13.9874 15.5877L13.982 15.2877C13.5882 15.2948 13.1244 15.3298 12.8209 15.7698L13.0678 15.9402ZM12.8844 16.1154C12.9366 16.0757 13.0136 16.0188 13.0678 15.9402L12.8209 15.7698C12.7987 15.8019 12.7631 15.8307 12.7027 15.8767L12.8844 16.1154ZM12.8835 16.1161L12.8835 16.1161L12.7035 15.8761L12.7035 15.8761L12.8835 16.1161ZM12.8835 16.1161L12.8835 16.1161L12.7035 15.8761L12.7035 15.8761L12.8835 16.1161ZM12.8134 16.1719C12.8338 16.154 12.8566 16.1365 12.8844 16.1154L12.7027 15.8767C12.6765 15.8967 12.6453 15.9203 12.6157 15.9463L12.8134 16.1719ZM12.3905 16.5309C12.5313 16.4133 12.6737 16.2943 12.8134 16.1719L12.6157 15.9463C12.4791 16.0659 12.3394 16.1827 12.1981 16.3007L12.3905 16.5309ZM12.3892 16.532L12.3893 16.5319L12.1993 16.2997L12.1992 16.2998L12.3892 16.532ZM11.3238 17.5299C11.6374 17.1607 12.0081 16.8505 12.3904 16.531L12.198 16.3008C11.819 16.6175 11.4281 16.9437 11.0952 17.3356L11.3238 17.5299ZM10.867 18.5187C10.8938 18.1429 11.0705 17.8283 11.3239 17.5298L11.0952 17.3357C10.8199 17.6599 10.6009 18.0334 10.5678 18.4973L10.867 18.5187ZM10.8656 18.855C10.8457 18.7498 10.847 18.6431 10.8654 18.5326L10.5694 18.4834C10.5462 18.623 10.5434 18.7657 10.5709 18.9108L10.8656 18.855ZM11.0934 19.1418C11.0102 19.1255 10.9596 19.1154 10.9237 19.1042C10.8897 19.0936 10.8898 19.0879 10.8945 19.0935C10.8985 19.0982 10.8922 19.0954 10.8854 19.0564C10.8784 19.0164 10.8741 18.961 10.8679 18.8723L10.5686 18.8934C10.5745 18.9763 10.5796 19.0496 10.5899 19.1082C10.6003 19.1677 10.6192 19.2333 10.6669 19.2888C10.7152 19.3452 10.7773 19.3728 10.8344 19.3906C10.8896 19.4078 10.9592 19.4212 11.0357 19.4362L11.0934 19.1418ZM11.1228 19.1476L11.0934 19.1418L11.0357 19.4362L11.0651 19.442L11.1228 19.1476ZM11.1519 19.1533L11.123 19.1476L11.0649 19.4419L11.0939 19.4476L11.1519 19.1533ZM11.5139 19.2701C11.3865 19.1982 11.2546 19.1735 11.1518 19.1533L11.094 19.4477C11.2025 19.469 11.2874 19.4868 11.3664 19.5314L11.5139 19.2701ZM12.2827 20.3572C12.1899 19.8871 11.9473 19.5149 11.514 19.2702L11.3664 19.5314C11.7162 19.7289 11.9108 20.0225 11.9884 20.4153L12.2827 20.3572ZM12.3766 21.0543C12.3532 20.8266 12.329 20.5909 12.2827 20.3571L11.9884 20.4154C12.0316 20.6332 12.0545 20.855 12.0782 21.085L12.3766 21.0543ZM12.3765 21.0531L12.3765 21.0531L12.0783 21.0862L12.0783 21.0862L12.3765 21.0531ZM12.4891 21.8294C12.4308 21.5785 12.4042 21.3219 12.3766 21.0543L12.0782 21.085C12.1054 21.3495 12.1336 21.625 12.1968 21.8973L12.4891 21.8294ZM13.0445 22.6845C12.7232 22.5009 12.5769 22.2069 12.489 21.8294L12.1968 21.8974C12.2935 22.3129 12.4706 22.7022 12.8957 22.945L13.0445 22.6845ZM13.4098 22.7186C13.3679 22.7788 13.3383 22.7868 13.3083 22.7868C13.2596 22.7866 13.1795 22.7619 13.0447 22.6846L12.8956 22.9449C13.0371 23.026 13.1755 23.0865 13.3076 23.0868C13.4583 23.0871 13.5719 23.0108 13.656 22.8901L13.4098 22.7186ZM14.2285 22.3062C13.9179 22.3177 13.6172 22.4203 13.4097 22.7188L13.6561 22.89C13.7935 22.6922 13.9908 22.6152 14.2396 22.606L14.2285 22.3062ZM15.1417 22.4685C14.8631 22.386 14.5573 22.2941 14.2285 22.3062L14.2396 22.606C14.5113 22.596 14.7702 22.6713 15.0565 22.7561L15.1417 22.4685ZM15.1403 22.4681L15.1403 22.4681L15.0579 22.7565L15.0579 22.7565L15.1403 22.4681ZM15.5258 22.5727C15.3992 22.5447 15.2734 22.5075 15.1417 22.4685L15.0565 22.7561C15.1865 22.7946 15.3224 22.835 15.461 22.8656L15.5258 22.5727ZM16.113 22.6171C15.9252 22.6528 15.7392 22.6201 15.526 22.5727L15.4609 22.8656C15.6741 22.913 15.9145 22.9602 16.169 22.9118L16.113 22.6171ZM16.5784 21.7678C16.6045 21.8961 16.5796 22.0979 16.4927 22.2788C16.4062 22.4588 16.2747 22.5863 16.1129 22.6171L16.1691 22.9118C16.4586 22.8566 16.6532 22.6373 16.7631 22.4087C16.8724 22.181 16.914 21.9125 16.8724 21.708L16.5784 21.7678ZM16.5592 21.6789C16.566 21.7095 16.5725 21.7387 16.5784 21.7678L16.8724 21.7079C16.8658 21.6759 16.8588 21.6443 16.8522 21.6141L16.5592 21.6789ZM16.5594 21.6795L16.5594 21.6796L16.852 21.6134L16.852 21.6132L16.5594 21.6795ZM11.2134 18.3225C11.2528 18.0913 11.352 17.9298 11.489 17.8095C11.6293 17.6864 11.8165 17.6004 12.0397 17.5362L11.9568 17.2479C11.7116 17.3184 11.4776 17.4204 11.2911 17.584C11.1015 17.7504 10.9685 17.9742 10.9177 18.2721L11.2134 18.3225ZM11.2156 18.2977V18.2973H10.9156V18.2977H11.2156ZM11.2096 18.5521C11.2372 18.4531 11.2356 18.355 11.2107 18.2598L10.9205 18.3357C10.9329 18.3834 10.933 18.4274 10.9207 18.4715L11.2096 18.5521ZM12.0114 19.2846C11.7922 19.2141 11.612 19.1223 11.4778 18.9966C11.3462 18.8734 11.252 18.7114 11.2129 18.4861L10.9174 18.5374C10.9672 18.825 11.0921 19.0465 11.2728 19.2156C11.4509 19.3824 11.6764 19.492 11.9194 19.5702L12.0114 19.2846ZM12.3071 19.2478C12.2507 19.2851 12.2056 19.3008 12.1648 19.3056C12.1234 19.3105 12.0755 19.3053 12.0115 19.2847L11.9194 19.5702C12.0112 19.5998 12.1038 19.6148 12.1997 19.6036C12.2963 19.5922 12.3855 19.5556 12.4725 19.4981L12.3071 19.2478ZM14.013 18.8292C13.4148 18.7967 12.8292 18.9037 12.3072 19.2477L12.4723 19.4982C12.9279 19.198 13.4454 19.0988 13.9968 19.1287L14.013 18.8292ZM15.4562 19.041C14.9866 18.9498 14.505 18.856 14.0131 18.8292L13.9968 19.1287C14.4646 19.1543 14.926 19.2436 15.3989 19.3355L15.4562 19.041ZM15.457 19.0412L15.457 19.0412L15.3981 19.3354L15.3982 19.3354L15.457 19.0412ZM15.4568 19.0411L15.4566 19.0411L15.3986 19.3354L15.3989 19.3355L15.4568 19.0411ZM15.7021 19.0884C15.6203 19.0729 15.5386 19.057 15.4564 19.0411L15.3992 19.3356C15.4813 19.3515 15.5636 19.3675 15.6461 19.3832L15.7021 19.0884ZM17.2559 19.1465C16.7551 19.2728 16.241 19.1907 15.7021 19.0884L15.6461 19.3832C16.1803 19.4846 16.7561 19.582 17.3293 19.4374L17.2559 19.1465ZM17.307 19.1336L17.256 19.1464L17.3292 19.4374L17.3801 19.4246L17.307 19.1336ZM17.3141 19.132L17.3141 19.132L17.373 19.4262L17.373 19.4262L17.3141 19.132ZM17.3142 19.132L17.3141 19.132L17.373 19.4262L17.373 19.4262L17.3142 19.132ZM17.7257 18.9934C17.7237 18.9965 17.7117 19.0143 17.6384 19.0415C17.5657 19.0684 17.4624 19.0946 17.307 19.1336L17.3801 19.4246C17.5284 19.3873 17.6509 19.3568 17.7427 19.3228C17.8338 19.289 17.9248 19.2415 17.9806 19.1514L17.7257 18.9934ZM17.681 18.5987C17.7081 18.7389 17.7261 18.8325 17.7317 18.9025C17.7374 18.9727 17.7276 18.9902 17.7257 18.9933L17.9806 19.1514C18.0338 19.0656 18.0381 18.9687 18.0307 18.8783C18.0234 18.7878 18.0013 18.6749 17.9755 18.5417L17.681 18.5987ZM17.6707 18.5452L17.681 18.5987L17.9755 18.5418L17.9652 18.4883L17.6707 18.5452ZM16.4494 17.4617C17.0817 17.4926 17.5469 17.9034 17.6707 18.5452L17.9652 18.4884C17.8163 17.7162 17.2399 17.2 16.4641 17.162L16.4494 17.4617ZM15.9789 17.4603C16.1447 17.4839 16.3116 17.4844 16.4782 17.4603L16.4352 17.1634C16.2976 17.1833 16.1595 17.183 16.0211 17.1633L15.9789 17.4603ZM15.8479 17.4755C15.9026 17.471 15.9583 17.4664 16.014 17.4612L15.986 17.1625C15.9322 17.1675 15.8782 17.172 15.8233 17.1765L15.8479 17.4755ZM15.848 17.4755L15.8481 17.4755L15.8231 17.1765L15.8231 17.1765L15.848 17.4755ZM15.5264 17.5068C15.6314 17.4934 15.7377 17.4846 15.8479 17.4755L15.8232 17.1765C15.7141 17.1855 15.6012 17.1948 15.4885 17.2092L15.5264 17.5068ZM14.8662 17.6097C15.0884 17.5719 15.307 17.5348 15.5264 17.5068L15.4885 17.2092C15.2618 17.2381 15.0371 17.2763 14.8159 17.3139L14.8662 17.6097ZM13.5551 17.7636C14.0045 17.7565 14.4419 17.6818 14.8662 17.6097L14.8159 17.3139C14.388 17.3867 13.9731 17.457 13.5504 17.4636L13.5551 17.7636ZM12.3398 17.5913C12.7398 17.7435 13.1496 17.7699 13.5551 17.7636L13.5504 17.4636C13.1587 17.4697 12.7937 17.443 12.4464 17.3109L12.3398 17.5913ZM12.0396 17.5363C12.1149 17.5147 12.2035 17.5394 12.3397 17.5913L12.4465 17.3109C12.325 17.2647 12.1427 17.1946 11.9569 17.2479L12.0396 17.5363ZM16.3908 21.1047C16.3878 21.3597 16.341 21.564 16.2534 21.7292C16.1664 21.8932 16.0343 22.0279 15.846 22.1376L15.9969 22.3969C16.2276 22.2626 16.4021 22.0891 16.5184 21.8698C16.6341 21.6517 16.6874 21.3975 16.6907 21.1081L16.3908 21.1047ZM16.4351 20.9999L16.4347 21.0003L16.6468 21.2124L16.6472 21.212L16.4351 20.9999ZM15.7917 19.8941C16.1948 20.2182 16.3619 20.6592 16.3915 21.1157L16.6909 21.0963C16.6573 20.5776 16.4636 20.0494 15.9797 19.6603L15.7917 19.8941ZM15.3284 19.8135C15.4734 19.7276 15.6273 19.7619 15.7917 19.8941L15.9797 19.6603C15.7667 19.4891 15.4734 19.3788 15.1754 19.5555L15.3284 19.8135ZM14.9879 20.3555C14.9889 20.1212 15.1161 19.9397 15.3285 19.8134L15.1752 19.5556C14.8955 19.7219 14.6894 19.9901 14.6879 20.3543L14.9879 20.3555ZM15.0236 21.0526C15.0047 20.8151 14.9865 20.5846 14.9879 20.3558L14.6879 20.354C14.6864 20.5977 14.7058 20.841 14.7245 21.0763L15.0236 21.0526ZM15.0327 21.1694L15.0236 21.0527L14.7245 21.0762L14.7337 21.1929L15.0327 21.1694ZM15.1828 21.923C15.0769 21.6972 15.0542 21.448 15.0328 21.1697L14.7337 21.1927C14.7546 21.4639 14.7785 21.7675 14.9112 22.0504L15.1828 21.923ZM15.846 22.1376C15.7062 22.219 15.5741 22.2305 15.4656 22.1958C15.3568 22.1609 15.2533 22.0737 15.1828 21.9231L14.9111 22.0503C15.0114 22.2646 15.174 22.4174 15.3741 22.4815C15.5745 22.5456 15.7942 22.5149 15.997 22.3969L15.846 22.1376ZM14.3601 21.6482C14.4654 21.4033 14.4984 21.1512 14.4949 20.8998L14.1949 20.904C14.198 21.1264 14.1687 21.334 14.0845 21.5297L14.3601 21.6482ZM13.1261 22.3869C13.3572 22.3871 13.5997 22.3612 13.8192 22.2525C14.0436 22.1413 14.2303 21.9507 14.3602 21.6481L14.0844 21.5298C13.9798 21.7737 13.8403 21.9073 13.6861 21.9836C13.5272 22.0623 13.3388 22.0871 13.1264 22.0869L13.1261 22.3869ZM12.6465 21.8978C12.6584 22.0273 12.6973 22.1509 12.7813 22.2439C12.869 22.341 12.9897 22.3869 13.1263 22.3869V22.0869C13.06 22.0869 13.0257 22.0669 13.004 22.0429C12.9785 22.0147 12.9537 21.9619 12.9452 21.8703L12.6465 21.8978ZM12.7023 21.2461C12.6663 21.4446 12.6251 21.6663 12.6465 21.8978L12.9452 21.8703C12.9283 21.6862 12.9603 21.5047 12.9975 21.2997L12.7023 21.2461ZM12.7025 21.2454L12.7024 21.2455L12.9974 21.3004L12.9974 21.3002L12.7025 21.2454ZM12.7372 21.0412C12.7273 21.1085 12.7151 21.1758 12.7023 21.246L12.9975 21.2996C13.0101 21.2302 13.0232 21.158 13.034 21.0851L12.7372 21.0412ZM12.7597 20.8798C12.7524 20.9344 12.7451 20.988 12.7372 21.0412L13.034 21.0851C13.0422 21.0297 13.0497 20.9743 13.057 20.92L12.7597 20.8798ZM13.044 19.8953C12.848 20.2124 12.8024 20.5643 12.7597 20.8798L13.057 20.92C13.1011 20.5946 13.142 20.3073 13.2992 20.0531L13.044 19.8953ZM13.0892 19.8196C13.0734 19.8464 13.0588 19.8713 13.044 19.8953L13.2992 20.0531C13.3162 20.0256 13.3326 19.9976 13.348 19.9713L13.0892 19.8196ZM13.6802 19.3933C13.5126 19.3878 13.3867 19.4497 13.2908 19.5407C13.2021 19.6249 13.1389 19.7347 13.0892 19.8196L13.348 19.9713C13.4026 19.8781 13.445 19.8079 13.4972 19.7584C13.5422 19.7158 13.5924 19.6906 13.6705 19.6931L13.6802 19.3933ZM14.295 19.9295C14.2471 19.8282 14.1866 19.6978 14.0964 19.5942C14.0001 19.4836 13.8669 19.3994 13.6803 19.3933L13.6704 19.6931C13.7593 19.696 13.8183 19.7316 13.8702 19.7912C13.9282 19.8578 13.9719 19.948 14.0237 20.0576L14.295 19.9295ZM14.2968 19.9334L14.295 19.9295L14.0237 20.0576L14.0256 20.0616L14.2968 19.9334ZM14.4949 20.9047C14.5011 20.5701 14.4428 20.2415 14.2968 19.9333L14.0256 20.0617C14.1489 20.322 14.2004 20.6035 14.1949 20.8991L14.4949 20.9047Z" fill="#0E2F4E"/>
</svg>
