<svg width="29" height="28" viewBox="0 0 29 28" fill="none" xmlns="http://www.w3.org/2000/svg">
<rect x="0.333374" width="28" height="28" rx="6" fill="#51BDEA"/>
<path d="M21.0901 16.1881C21.0901 15.9937 21.0602 15.8192 21.0003 15.6647C20.9455 15.5051 20.8408 15.3606 20.6863 15.231C20.5317 15.0964 20.3149 14.9643 20.0357 14.8346C19.7565 14.705 19.3951 14.5704 18.9514 14.4308C18.4579 14.2713 17.9893 14.0919 17.5456 13.8924C17.1069 13.693 16.7181 13.4612 16.3791 13.197C16.0451 12.9278 15.7809 12.6162 15.5865 12.2623C15.397 11.9084 15.3023 11.4971 15.3023 11.0285C15.3023 10.5748 15.402 10.1636 15.6014 9.79465C15.8008 9.42077 16.08 9.10172 16.4389 8.8375C16.7979 8.56831 17.2216 8.36142 17.7101 8.21685C18.2037 8.07228 18.7446 8 19.3328 8C20.1354 8 20.8358 8.14457 21.4341 8.43371C22.0323 8.72285 22.4959 9.11917 22.8249 9.62267C23.1589 10.1262 23.3259 10.702 23.3259 11.35H21.0976C21.0976 11.031 21.0303 10.7518 20.8957 10.5125C20.766 10.2682 20.5666 10.0763 20.2974 9.93673C20.0332 9.79715 19.6992 9.72735 19.2954 9.72735C18.9066 9.72735 18.5825 9.78718 18.3233 9.90682C18.0641 10.0215 17.8697 10.1785 17.7401 10.3779C17.6104 10.5723 17.5456 10.7917 17.5456 11.036C17.5456 11.2204 17.5905 11.3874 17.6802 11.537C17.775 11.6865 17.9145 11.8261 18.099 11.9557C18.2834 12.0853 18.5103 12.2075 18.7795 12.3221C19.0487 12.4368 19.3602 12.5489 19.7142 12.6586C20.3074 12.8381 20.8284 13.04 21.277 13.2643C21.7307 13.4886 22.1095 13.7404 22.4136 14.0196C22.7177 14.2987 22.947 14.6153 23.1016 14.9692C23.2561 15.3232 23.3334 15.7245 23.3334 16.1732C23.3334 16.6467 23.2412 17.0705 23.0567 17.4444C22.8723 17.8182 22.6056 18.1348 22.2566 18.394C21.9076 18.6533 21.4914 18.8502 21.0078 18.9848C20.5243 19.1194 19.9834 19.1867 19.3852 19.1867C18.8468 19.1867 18.3158 19.1169 17.7924 18.9773C17.269 18.8327 16.7929 18.6159 16.3642 18.3267C15.9404 18.0376 15.6014 17.6687 15.3472 17.22C15.0929 16.7714 14.9658 16.2405 14.9658 15.6273H17.2166C17.2166 15.9663 17.269 16.2529 17.3736 16.4872C17.4783 16.7215 17.6254 16.911 17.8148 17.0555C18.0093 17.2001 18.2386 17.3048 18.5028 17.3696C18.772 17.4344 19.0661 17.4668 19.3852 17.4668C19.774 17.4668 20.093 17.412 20.3423 17.3023C20.5965 17.1926 20.7835 17.0406 20.9031 16.8461C21.0278 16.6517 21.0901 16.4324 21.0901 16.1881Z" fill="#0E2F4E"/>
<path d="M10.8669 8.14966V19.0372H8.63105V8.14966H10.8669ZM14.2169 8.14966V9.90692H5.33337V8.14966H14.2169Z" fill="#0E2F4E"/>
</svg>
