<svg width="28" height="28" viewBox="0 0 28 28" fill="none" xmlns="http://www.w3.org/2000/svg">
<rect width="28" height="28" fill="#D192F9"/>
<path fill-rule="evenodd" clip-rule="evenodd" d="M14.6722 12.687V12.687C14.9673 8.57273 15.1987 5.34814 17.5594 5.50552C20.5255 5.70327 21.9097 12.2289 20.7233 12.6244C19.9218 12.8915 19.1579 12.0496 18.7412 11.3842C18.6544 11.2457 18.4426 11.246 18.3673 11.3911L16.3238 15.3319C16.2671 15.4414 16.3222 15.5755 16.4379 15.6181C18.2734 16.2943 19.5368 17.7103 19.5368 19.3476C19.5368 21.641 17.0579 23.5002 14 23.5002C10.9421 23.5002 8.46319 21.641 8.46319 19.3476C8.46319 17.7103 9.72661 16.2943 11.5621 15.6181C11.6778 15.5755 11.7329 15.4414 11.6762 15.3319L9.63272 11.3911C9.55748 11.246 9.3456 11.2457 9.25883 11.3843C8.84209 12.0496 8.07823 12.8916 7.27676 12.6244C6.09031 12.2289 7.47451 5.70332 10.4407 5.50558C12.8014 5.3482 13.0327 8.57279 13.3279 12.6871V12.6871L13.3279 12.6871C13.3818 13.4389 13.4379 14.2205 13.5095 15.0165C13.5191 15.1242 13.613 15.2042 13.7211 15.2001C13.8135 15.1967 13.9065 15.195 14 15.195C14.0935 15.195 14.1865 15.1967 14.2789 15.2001C14.387 15.2042 14.4809 15.1242 14.4906 15.0165C14.5622 14.2204 14.6182 13.4389 14.6722 12.687V12.687V12.687ZM12.6283 20.7599C13.0727 20.5487 13.5188 20.3366 14 20.3366C14.4812 20.3366 14.9274 20.5487 15.3718 20.76C15.5569 20.848 15.7418 20.9359 15.9287 21.0082C16.1279 21.0853 16.3444 21.1276 16.5708 21.1276C17.5537 21.1276 18.3505 20.3308 18.3505 19.3479C18.3505 18.365 17.5537 17.5682 16.5708 17.5682C16.5059 17.5682 16.4418 17.5717 16.3787 17.5784C16.3756 17.5788 16.373 17.5764 16.373 17.5733C16.373 17.5705 16.3707 17.5682 16.3678 17.5682H11.4507L11.4294 17.5681L11.4081 17.5682H11.2373C11.2342 17.5682 11.2317 17.5707 11.2317 17.5739C11.2317 17.5767 11.2295 17.5792 11.2266 17.5795C10.3392 17.6802 9.64971 18.4334 9.64971 19.3478C9.64971 20.3306 10.4465 21.1274 11.4294 21.1274C11.6557 21.1274 11.8722 21.0852 12.0714 21.0081C12.2583 20.9358 12.4431 20.8479 12.6283 20.7599ZM10.553 19.2413C10.553 19.6964 10.7649 19.9815 11.1126 19.9815C11.4612 19.9815 11.6721 19.6964 11.6721 19.2413V19.2393C11.6721 18.7833 11.4612 18.5001 11.1126 18.5001C10.7649 18.5001 10.553 18.7833 10.553 19.2393V19.2413ZM11.3743 19.2413C11.3743 19.5596 11.2795 19.7481 11.1126 19.7481C10.9465 19.7481 10.8518 19.5596 10.8518 19.2413V19.2393C10.8518 18.92 10.9465 18.7335 11.1126 18.7335C11.2795 18.7335 11.3743 18.92 11.3743 19.2393V19.2413ZM12.2844 18.8145V19.9454H12.5793V18.5362H12.2854L11.9211 18.7891V19.0548L12.2668 18.8145H12.2844ZM15.2531 19.4774V19.0241L16.3038 18.5001V18.8661L15.4591 19.2459L16.3038 19.6244V20.0001L15.2531 19.4774ZM17.6476 19.0241V19.4774L16.5968 20.0001V19.6341L17.4406 19.2556L16.5968 18.8758V18.5001L17.6476 19.0241Z" fill="#211328"/>
</svg>
