<svg width="29" height="28" viewBox="0 0 29 28" fill="none" xmlns="http://www.w3.org/2000/svg">
<rect x="0.666626" width="28" height="28" rx="6" fill="#B6A3FF"/>
<path d="M13.9212 5.00004C15.0438 5.01627 16.096 5.44908 16.9589 6.31199C17.0861 6.43913 17.197 6.46888 17.3674 6.44454C19.8425 6.09559 22.0147 7.6591 22.4691 10.118C22.5881 10.7645 22.5503 11.4083 22.3663 12.0386C22.3203 12.1928 22.3501 12.2901 22.4502 12.4119C24.4979 14.9249 23.2725 18.7254 20.1428 19.5532C19.9642 19.5992 19.8858 19.6803 19.8236 19.8426C18.6604 22.8669 14.7543 23.6811 12.4767 21.3737C12.3631 21.2601 12.2657 21.2357 12.1115 21.2574C9.60122 21.6117 7.42636 20.0455 6.97732 17.5596C6.861 16.9212 6.90429 16.2855 7.08823 15.6633C7.13421 15.5091 7.10446 15.4118 7.00708 15.29C4.95124 12.7743 6.19827 8.9467 9.33883 8.1406C9.49572 8.10002 9.56875 8.0324 9.62556 7.88633C10.3018 6.11723 11.9438 4.99193 13.9212 5.00004ZM16.6424 15.8933C15.2223 16.7129 13.8481 17.5001 12.4848 18.3007C12.1764 18.482 11.914 18.4766 11.6057 18.2953C10.5372 17.6624 9.46055 17.0483 8.38394 16.4316C8.3055 16.3883 8.24058 16.299 8.11615 16.3369C7.97007 17.6515 8.38124 18.7471 9.46055 19.5234C10.548 20.3052 11.7436 20.4026 12.9284 19.775C14.1403 19.1339 15.3116 18.4144 16.4991 17.7273C16.5667 17.6894 16.6424 17.6597 16.6424 17.5596V15.8933ZM15.885 6.94227C15.858 6.84759 15.7877 6.82054 15.7336 6.78267C14.6515 6.0496 13.4992 5.93328 12.3306 6.50946C11.1512 7.09375 10.5236 8.09191 10.4885 9.40927C10.4533 10.7483 10.4831 12.0873 10.4749 13.4263C10.4749 13.5696 10.5236 13.6454 10.6454 13.7103C11.043 13.9294 11.4352 14.162 11.8275 14.3865C11.8762 14.4136 11.9194 14.4731 12.0006 14.4217C12.0006 12.8366 12.006 11.2433 11.9979 9.65002C11.9952 9.32271 12.1196 9.11171 12.4036 8.95211C13.226 8.48955 14.0402 8.01346 14.8571 7.54008C15.2007 7.34261 15.5442 7.13973 15.885 6.94227ZM17.4513 13.2153V13.5615C17.4513 15.0655 17.4486 16.5722 17.454 18.0762C17.4567 18.3819 17.3431 18.5902 17.0753 18.7363C16.6993 18.9418 16.3314 19.161 15.9608 19.3747C15.1628 19.8372 14.3621 20.2998 13.4884 20.8056C13.5641 20.8327 13.602 20.8381 13.629 20.8597C14.6326 21.5928 15.7281 21.7605 16.8778 21.3006C18.0274 20.8408 18.7686 19.9671 18.9093 18.7363C19.0797 17.2323 18.9444 15.712 18.9715 14.1999C18.9742 14.1187 18.9363 14.0728 18.8714 14.0349C18.4115 13.7698 17.9544 13.5047 17.4513 13.2153ZM15.5388 11.1703C15.6497 11.2379 15.7254 11.2812 15.7985 11.3244C17.1077 12.0819 18.4143 12.842 19.7289 13.5913C20.0129 13.7536 20.1347 13.9673 20.132 14.2919C20.1238 15.5443 20.1293 16.7967 20.1293 18.0492C20.1293 18.1412 20.1374 18.2304 20.1428 18.3413C20.2104 18.317 20.251 18.3035 20.2916 18.2872C21.4682 17.7408 22.1661 16.8238 22.2771 15.5362C22.3934 14.2026 21.8605 13.1314 20.7162 12.4254C19.5639 11.714 18.3737 11.0648 17.2024 10.3831C17.0996 10.3236 17.0239 10.3155 16.9157 10.3777C16.472 10.6374 16.023 10.8889 15.5388 11.1703ZM9.3226 9.39304C9.20087 9.37681 9.12783 9.43361 9.05209 9.47148C7.9322 10.0341 7.27758 10.943 7.17479 12.1873C7.06929 13.4777 7.56973 14.538 8.66527 15.2305C9.83926 15.9717 11.0646 16.6344 12.2657 17.3323C12.336 17.3729 12.4009 17.4081 12.4821 17.3594C12.9474 17.0889 13.4126 16.8184 13.9049 16.5344C13.8022 16.4721 13.7318 16.4262 13.6588 16.3829C12.3495 15.6255 11.043 14.8653 9.72835 14.1187C9.4335 13.951 9.31448 13.7319 9.31719 13.3965C9.32801 12.0683 9.3226 10.7374 9.3226 9.39304ZM12.8148 11.7951C12.9284 11.7356 13.0042 11.6977 13.0772 11.6545C14.3729 10.9079 15.6713 10.1667 16.9589 9.40656C17.2673 9.22532 17.5297 9.21991 17.8381 9.40115C18.9228 10.0422 20.0156 10.6644 21.1058 11.292C21.1707 11.3298 21.2248 11.4002 21.3357 11.3677C21.4791 10.0801 21.0895 8.99269 20.0373 8.21364C18.9444 7.40212 17.7353 7.29122 16.5288 7.9269C15.317 8.568 14.1457 9.28754 12.9555 9.97192C12.8878 10.0098 12.8148 10.0422 12.8148 10.1423V11.7951ZM16.6424 13.924C16.6424 13.5534 16.6343 13.245 16.6452 12.9393C16.6506 12.7987 16.6046 12.7175 16.4801 12.6499C15.9391 12.3469 15.4008 12.0359 14.8679 11.7194C14.7651 11.6572 14.6894 11.6572 14.5839 11.7167C14.051 12.0332 13.5127 12.3442 12.9717 12.6472C12.8473 12.7175 12.8094 12.7987 12.8094 12.9393C12.8175 13.5426 12.8202 14.1485 12.8094 14.7517C12.8067 14.9167 12.8662 15.0033 13.0069 15.0763C13.2638 15.2089 13.5073 15.3631 13.7589 15.5064C14.0781 15.6877 14.3973 16.015 14.7138 16.0123C15.0438 16.0096 15.3711 15.6904 15.6957 15.5064C16.0068 15.3279 16.4152 15.2089 16.5911 14.9411C16.7723 14.6571 16.6235 14.2242 16.6424 13.924Z" fill="#1E1328"/>
</svg>
