<svg width="28" height="28" viewBox="0 0 28 28" fill="none" xmlns="http://www.w3.org/2000/svg">
<rect width="28" height="28" fill="#FB6A6A"/>
<path d="M15.5381 5.37305C15.4129 5.37305 15.2967 5.39976 15.1891 5.43554C15.4174 5.58772 15.5426 5.78905 15.6051 6.01708C15.6097 6.04832 15.6185 6.07075 15.623 6.10199C15.6276 6.12895 15.6321 6.15566 15.6321 6.18262C15.6497 6.5762 15.529 6.62533 15.4441 6.8579C15.3144 7.15774 15.3501 7.4795 15.5069 7.73903C15.5202 7.77028 15.5381 7.80605 15.5605 7.8373C15.3905 6.70596 16.3341 6.53588 16.5087 6.18262C16.522 5.87396 16.2671 5.66835 16.0657 5.52498C15.8735 5.40908 15.6991 5.37305 15.5381 5.37305ZM16.9602 5.62804C16.9426 5.73084 16.9559 5.70413 16.9514 5.7578C16.9469 5.79358 16.9469 5.83818 16.9426 5.87396C16.9342 5.91032 16.9236 5.94615 16.9111 5.9813C16.9023 6.01708 16.8889 6.05286 16.8753 6.08864C16.8577 6.12442 16.8441 6.15566 16.8262 6.19144C16.8128 6.20933 16.8037 6.22722 16.7904 6.24511L16.7637 6.28542C16.7423 6.31604 16.7199 6.34588 16.6964 6.37487C16.6697 6.40158 16.6473 6.43283 16.6158 6.4555V6.45979C16.5891 6.48221 16.5624 6.50917 16.5311 6.53135C16.4371 6.60291 16.3295 6.65657 16.2313 6.72385C16.2 6.74602 16.1688 6.76417 16.1418 6.79087C16.1106 6.81305 16.0839 6.83547 16.0569 6.86243C16.0257 6.88914 16.0032 6.9161 15.9763 6.94735C15.9541 6.97405 15.9271 7.0053 15.9093 7.0368C15.8869 7.06707 15.866 7.09844 15.8468 7.13078C15.8289 7.16656 15.8153 7.1978 15.7974 7.23358C15.784 7.26936 15.7707 7.30061 15.7616 7.33639C15.7482 7.3767 15.7394 7.41248 15.7304 7.44826C15.7258 7.46615 15.7258 7.48857 15.7215 7.50621C15.717 7.52435 15.717 7.54224 15.7125 7.56013C15.7125 7.59591 15.7082 7.63623 15.7082 7.67176C15.7082 7.69872 15.7082 7.72568 15.7125 7.75239C15.7125 7.78816 15.717 7.82394 15.7261 7.86426C15.7304 7.90004 15.7394 7.93582 15.7482 7.9716C15.7619 8.00738 15.7709 8.04316 15.784 8.07894C15.7931 8.10136 15.8065 8.12354 15.8155 8.14143L14.7867 7.74331C14.6149 7.69445 14.4419 7.64975 14.2679 7.60927L13.9862 7.54224C13.7171 7.48851 13.4455 7.44814 13.1724 7.4213C13.1633 7.4213 13.1588 7.41702 13.1497 7.41702C12.8837 7.39021 12.6165 7.37676 12.3492 7.3767C12.1527 7.3767 11.9556 7.38577 11.7634 7.39913C11.4891 7.41865 11.216 7.45144 10.945 7.49739C10.8775 7.50714 10.8104 7.51907 10.7437 7.53317C10.6051 7.56013 10.4708 7.59138 10.3413 7.62262L10.1397 7.67629C10.0729 7.70325 10.0102 7.7345 9.94768 7.7612L9.80003 7.82848C9.79096 7.83302 9.78214 7.83302 9.7776 7.8373C9.73301 7.85972 9.69269 7.87761 9.65238 7.90004C9.63902 7.90432 9.62995 7.90886 9.62113 7.91339C9.57401 7.93541 9.52778 7.95928 9.48255 7.98495C9.45105 7.99831 9.41981 8.0162 9.3931 8.02955C9.38011 8.03788 9.36665 8.04545 9.35278 8.05223C9.31247 8.0744 9.27215 8.09683 9.23638 8.119C9.19606 8.14168 9.16053 8.16385 9.12904 8.18628C9.09779 8.20845 9.06655 8.22659 9.03959 8.24876C9.0353 8.2533 9.03077 8.2533 9.02623 8.25783C8.99953 8.27547 8.96828 8.29815 8.94132 8.32032L8.93225 8.32939L8.86523 8.38306C8.85641 8.38735 8.84759 8.39642 8.83852 8.4007C8.81609 8.41884 8.79367 8.44102 8.77124 8.45891C8.76696 8.46798 8.75789 8.47251 8.7536 8.47679C8.72664 8.50376 8.69968 8.52618 8.67297 8.55289C8.66844 8.55289 8.66844 8.55742 8.6639 8.56196C8.63719 8.58413 8.61023 8.61109 8.58327 8.6378C8.57899 8.64234 8.57899 8.64687 8.57445 8.64687C8.55101 8.66967 8.52864 8.69355 8.50743 8.71843C8.49861 8.72725 8.48501 8.73632 8.47619 8.74514C8.45202 8.77312 8.42663 8.80002 8.40009 8.82577C8.39556 8.83459 8.38674 8.83913 8.38245 8.8482C8.34642 8.88398 8.31518 8.91976 8.2794 8.95554L8.26604 8.96889C8.19449 9.04498 8.11839 9.12083 8.03776 9.1881C7.95738 9.25966 7.87247 9.32668 7.7873 9.38464C7.69786 9.44738 7.61294 9.50105 7.51896 9.55472C7.42951 9.60385 7.33578 9.6487 7.23726 9.68902C7.14353 9.72933 7.04501 9.76486 6.94674 9.79635C6.75877 9.83667 6.56627 9.91251 6.40097 9.92587C6.36519 9.92587 6.32488 9.93494 6.2891 9.93922C6.24878 9.94829 6.21326 9.95736 6.17748 9.96618L6.07014 10.0065C6.03436 10.0198 5.99858 10.0377 5.9628 10.0556C5.9313 10.0781 5.89553 10.0959 5.86453 10.1181C5.83263 10.141 5.80263 10.1665 5.77483 10.1942C5.74359 10.2166 5.71234 10.2479 5.68538 10.2748C5.65867 10.3061 5.63171 10.3328 5.60929 10.3643C5.58712 10.4001 5.56016 10.4313 5.54227 10.4671C5.51885 10.4997 5.49796 10.5341 5.47978 10.5699C5.46189 10.6102 5.444 10.646 5.43039 10.6863C5.41704 10.7221 5.40368 10.7621 5.39008 10.8025C5.38126 10.8382 5.37244 10.874 5.3679 10.9098C5.3679 10.9143 5.36337 10.9189 5.36337 10.9232C5.35455 10.9635 5.35455 11.0171 5.35001 11.0441C5.34548 11.0753 5.34094 11.1021 5.34094 11.1336C5.34094 11.1512 5.34094 11.1739 5.34548 11.1915C5.35001 11.223 5.35455 11.2497 5.36337 11.2767C5.37244 11.3034 5.38126 11.3303 5.39461 11.3573V11.3616C5.40822 11.3883 5.42611 11.4153 5.444 11.4422C5.46164 11.4689 5.47978 11.4956 5.50195 11.5226C5.52463 11.545 5.55134 11.5717 5.57804 11.5941C5.60427 11.6204 5.63268 11.6443 5.66296 11.6657C5.7703 11.7597 5.79726 11.7909 5.93584 11.8622C5.95827 11.8759 5.98069 11.8849 6.0074 11.8983C6.01193 11.8983 6.01647 11.9028 6.02075 11.9028C6.02075 11.9116 6.02075 11.9162 6.02529 11.925C6.02982 11.9608 6.03864 11.9965 6.04771 12.0323C6.05653 12.0726 6.07014 12.1084 6.08349 12.1397C6.09685 12.1666 6.10592 12.1933 6.11927 12.2203C6.12381 12.2291 6.12809 12.2379 6.13263 12.2427C6.15052 12.2785 6.16841 12.3097 6.1863 12.341L6.25332 12.435C6.276 12.4617 6.30271 12.4929 6.32941 12.5199C6.35638 12.5466 6.38308 12.569 6.41433 12.596C6.41433 12.596 6.41886 12.6003 6.4234 12.6003C6.45011 12.6229 6.47707 12.6451 6.50403 12.663C6.53527 12.6854 6.56652 12.7033 6.6023 12.721C6.63354 12.7391 6.66932 12.757 6.7051 12.7703C6.73206 12.7837 6.76305 12.7928 6.79455 12.8016C6.79908 12.8061 6.80362 12.8061 6.81244 12.8107C6.83033 12.8149 6.85275 12.8195 6.87039 12.824C6.85729 13.0654 6.85275 13.2937 6.88853 13.3741C6.92885 13.4635 7.12538 13.1906 7.32242 12.8777C7.29546 13.1863 7.27757 13.5484 7.32242 13.6558C7.37156 13.7676 7.6399 13.4189 7.87247 13.0341C11.0435 12.3009 13.9371 14.4923 14.2412 17.5872C14.1833 17.1039 13.5881 16.8356 13.3155 16.9029C13.1812 17.2337 12.9532 17.6588 12.5863 17.9226C12.6184 17.6239 12.6033 17.3221 12.5417 17.0281C12.4416 17.4399 12.2523 17.8246 11.9871 18.1552C11.5623 18.1864 11.1372 17.9805 10.9137 17.6721C10.8958 17.6585 10.8913 17.6318 10.878 17.6139C10.8646 17.5827 10.851 17.5512 10.8422 17.5199C10.8291 17.4899 10.82 17.4583 10.8152 17.426C10.8109 17.3947 10.8109 17.3635 10.8109 17.3277V17.2607C10.8152 17.2292 10.8243 17.1979 10.8331 17.1667C10.8422 17.1354 10.851 17.1039 10.8646 17.0727C10.8822 17.0415 10.8958 17.0102 10.9183 16.9787C10.9941 16.764 10.9941 16.5897 10.8555 16.4869C10.8287 16.4693 10.8003 16.4543 10.7706 16.442C10.7527 16.4375 10.7303 16.4287 10.7127 16.4244C10.6991 16.4199 10.69 16.4153 10.6766 16.4108C10.6454 16.402 10.6141 16.3929 10.5826 16.3884C10.5522 16.3796 10.5206 16.3751 10.4889 16.375C10.4564 16.3698 10.4236 16.3669 10.3906 16.3662C10.368 16.3662 10.3458 16.3705 10.3234 16.3705C10.2876 16.3705 10.2563 16.375 10.2251 16.3841C10.1934 16.3878 10.162 16.3937 10.1311 16.4017C10.0991 16.4102 10.0678 16.4207 10.0371 16.4332C10.0059 16.4466 9.97918 16.4599 9.94768 16.4735C9.92072 16.4869 9.89401 16.5048 9.86277 16.5181C8.82063 17.1979 9.44223 18.7901 10.1533 19.2507C9.88494 19.2999 9.61231 19.3581 9.53597 19.4163L9.52715 19.4251C9.72014 19.541 9.9221 19.6413 10.1311 19.7249C10.4174 19.8187 10.7215 19.9038 10.8555 19.9396V19.9439C11.2267 20.02 11.6024 20.0467 11.9826 20.0245C13.9638 19.8859 15.5872 18.3787 15.8825 16.3929C15.8914 16.4332 15.9004 16.4687 15.9095 16.509C15.9229 16.5897 15.9408 16.6746 15.9498 16.7595V16.764C15.9586 16.8044 15.9632 16.8447 15.9675 16.8802V16.8983C15.972 16.9387 15.9765 16.9787 15.9765 17.0145C15.9811 17.0636 15.9854 17.1128 15.9854 17.1621V17.2337C15.9854 17.2559 15.9899 17.2828 15.9899 17.3053C15.9899 17.332 15.9854 17.3589 15.9854 17.3859V17.4484C15.9854 17.4796 15.9808 17.5063 15.9808 17.5378C15.9808 17.5555 15.9808 17.5736 15.9765 17.5958C15.9765 17.6273 15.972 17.6585 15.972 17.6943C15.9675 17.7077 15.9675 17.721 15.9675 17.7346L15.9541 17.8374C15.9541 17.8508 15.9541 17.8641 15.9496 17.8777C15.945 17.9223 15.9362 17.9627 15.9319 18.0075V18.0163C15.9229 18.0566 15.9138 18.1012 15.905 18.1416V18.1549L15.878 18.2759C15.878 18.2801 15.8735 18.2892 15.8735 18.2935C15.8647 18.3338 15.8558 18.3741 15.8422 18.4144V18.4278C15.8289 18.4724 15.8155 18.5127 15.8065 18.553C15.8019 18.5576 15.8019 18.5618 15.8019 18.5618L15.7616 18.6961C15.744 18.7407 15.7304 18.781 15.7125 18.8259C15.6948 18.8705 15.6812 18.9153 15.6633 18.9554C15.6454 19.0003 15.6276 19.0406 15.6097 19.0852H15.6051C15.5875 19.1255 15.5694 19.1701 15.5472 19.2104C15.5435 19.2212 15.5389 19.2316 15.5336 19.2416C15.5293 19.2462 15.5293 19.2507 15.5248 19.2553C15.2291 19.8475 14.7986 20.3622 14.2679 20.758C14.2322 20.7802 14.1964 20.8071 14.1606 20.8338C14.1518 20.8429 14.1382 20.8472 14.1294 20.8563C14.0981 20.8787 14.0666 20.9009 14.0311 20.9233L14.0444 20.9502H14.0487L14.2367 20.9233H14.2412C14.3574 20.9056 14.4738 20.883 14.59 20.8608C14.6212 20.8563 14.657 20.8474 14.6882 20.8384C14.7109 20.8338 14.7285 20.8296 14.7512 20.825C14.7822 20.8205 14.8137 20.8117 14.8449 20.8071C14.8717 20.7981 14.8986 20.7938 14.9256 20.7847C15.3687 20.6767 15.8024 20.5331 16.2225 20.3553C15.5039 21.3345 14.5481 22.1149 13.445 22.6231C13.9613 22.5889 14.4725 22.5004 14.9702 22.359C16.767 21.8308 18.2847 20.6184 19.1967 18.9826C19.0124 20.018 18.6015 20.9999 17.9935 21.8581C18.427 21.5722 18.8276 21.2393 19.1879 20.8653C20.1887 19.8201 20.8457 18.4935 21.0706 17.0639C21.2225 17.7704 21.2671 18.4993 21.2003 19.2195C24.4296 14.7158 21.4687 10.0466 20.2298 8.8167C20.2252 8.80788 20.2207 8.80335 20.2207 8.79428C20.2164 8.79881 20.2164 8.79881 20.2164 8.80335C20.2164 8.79881 20.2164 8.79881 20.2119 8.79428C20.2119 8.84794 20.2073 8.90161 20.2028 8.95554C20.1904 9.05576 20.1756 9.15565 20.1582 9.25513C20.1358 9.35339 20.1091 9.45166 20.0821 9.55018C20.0509 9.64417 20.0151 9.74243 19.9748 9.83642C19.9345 9.92587 19.8899 10.0198 19.8407 10.1093C19.7913 10.1942 19.7377 10.2837 19.6795 10.3643C19.6215 10.4492 19.5588 10.5296 19.4963 10.6057C19.4293 10.6863 19.3577 10.7579 19.2861 10.8294C19.2413 10.8697 19.201 10.9053 19.1564 10.941C19.1206 10.9725 19.0894 10.9993 19.0536 11.0305C18.9729 11.0932 18.8923 11.1514 18.8031 11.2051C18.718 11.2588 18.6285 11.3124 18.5391 11.357C18.4453 11.4019 18.3513 11.442 18.2574 11.4823C18.1634 11.5181 18.0651 11.5493 17.9666 11.5763C17.8683 11.603 17.7655 11.6254 17.667 11.6433C17.5642 11.6612 17.4614 11.6702 17.3629 11.6791C17.2913 11.6836 17.2197 11.6881 17.1482 11.6881C17.0454 11.6881 16.9426 11.6791 16.8441 11.6702C16.7418 11.6622 16.6402 11.6472 16.5399 11.6254C16.4384 11.6069 16.3382 11.5815 16.2401 11.5493H16.2358C16.3341 11.5405 16.4326 11.5317 16.5311 11.5135C16.6339 11.4959 16.7322 11.4732 16.8307 11.4465C16.929 11.4198 17.0272 11.3885 17.1215 11.3525C17.2197 11.3167 17.3137 11.2719 17.4032 11.2273C17.4972 11.1827 17.5821 11.1336 17.6715 11.0799C17.7564 11.0217 17.8414 10.9635 17.922 10.901C18.0026 10.8382 18.0785 10.7712 18.15 10.6994C18.2261 10.6326 18.2931 10.5565 18.3602 10.4804C18.4274 10.3998 18.4899 10.3194 18.5481 10.2391C18.5569 10.2255 18.5658 10.2076 18.5748 10.1942C18.6197 10.1227 18.6643 10.0511 18.7046 9.97954C18.8034 9.8016 18.8844 9.61431 18.9462 9.42042C18.9775 9.32668 18.9999 9.22816 19.0221 9.1299C19.04 9.02684 19.0579 8.92832 19.0669 8.83005C19.0757 8.72725 19.0846 8.62445 19.0846 8.52593C19.0846 8.45437 19.0803 8.38281 19.0757 8.31125C19.0669 8.20845 19.0536 8.11018 19.04 8.01166C19.0223 7.90886 18.9997 7.81034 18.9729 7.71182C18.9417 7.61809 18.9105 7.51982 18.8747 7.42583C18.8389 7.33185 18.794 7.23787 18.7494 7.14867C18.7001 7.05897 18.6512 6.96977 18.5973 6.88461C18.5393 6.79969 18.4811 6.71906 18.4184 6.63868C18.3511 6.56157 18.2825 6.48555 18.2128 6.41065C18.177 6.37487 18.1367 6.33456 18.0963 6.29878C17.896 6.14314 17.6886 5.99685 17.4747 5.86035C17.4458 5.84371 17.416 5.82882 17.3853 5.81576C17.2376 5.72177 17.0991 5.67264 16.9605 5.62779L16.9602 5.62804Z" fill="#3A0009"/>
</svg>
