<svg width="29" height="28" viewBox="0 0 29 28" fill="none" xmlns="http://www.w3.org/2000/svg">
<rect x="0.666626" width="28" height="28" rx="6" fill="#51BDEA"/>
<path fill-rule="evenodd" clip-rule="evenodd" d="M15.8361 4C16.1686 4.33254 16.4274 4.96138 16.4274 5.59022C16.4274 6.96327 15.4104 7.9187 14.4585 8.81294C14.0523 9.19454 13.6579 9.56499 13.3595 9.952C13.137 10.2483 12.842 10.6908 12.842 11.1722C12.842 11.9027 13.3576 12.6856 13.8144 13.3793C14.0276 13.7029 14.2279 14.0071 14.3571 14.2776C13.6921 13.8337 12.842 13.2049 12.2131 12.501C11.6218 11.7635 10.993 10.6171 11.5481 9.58194C11.9482 8.83577 12.7519 8.23301 13.5707 7.61897C14.4145 6.98613 15.2743 6.34131 15.7248 5.51517C15.9474 5.10888 16.1311 4.48004 15.8361 4ZM18.8478 7.62884L18.8477 7.62889C18.3574 7.96428 17.8804 8.29056 17.3512 8.69565C17.2976 8.73683 17.2394 8.78033 17.1782 8.82605L17.1781 8.8261C16.6914 9.18981 16.0169 9.6938 15.9835 10.2846C15.9546 10.7047 16.1923 11.1133 16.4389 11.5371C16.8218 12.1954 17.2261 12.8905 16.6861 13.7225C16.3849 14.1914 15.901 14.4181 15.2912 14.7039C15.2279 14.7336 15.1632 14.7639 15.0972 14.7952C15.0451 14.6927 15.154 14.5896 15.2627 14.4868L15.2627 14.4867C15.3105 14.4415 15.3582 14.3964 15.3922 14.3513C15.9873 13.498 15.6136 12.9536 15.1853 12.3295C14.8154 11.7906 14.4048 11.1924 14.5421 10.2846C14.8384 8.32559 17.0562 7.69675 19.1265 7.43797C19.0328 7.5023 18.9401 7.56573 18.8478 7.62884ZM11.6088 14.1169L11.5987 14.1197L11.5968 14.1203C11.1354 14.2508 10.6228 14.3959 10.3643 14.7576C10.7344 15.0539 11.2895 15.0539 11.807 15.0539C13.9511 15.1652 16.5751 14.9802 18.3866 14.6477C18.4604 14.7952 18.1278 15.0164 17.9428 15.1277C16.7977 15.9778 13.2485 16.2004 10.8081 16.0516C9.99557 15.9778 8.10905 15.7928 8.10905 15.0539C8.0755 14.2282 10.0888 14.0753 11.1137 13.9975L11.1226 13.9968L11.3257 13.9813C11.3904 13.9813 11.4732 13.9722 11.5677 13.9619C11.7571 13.9346 11.9489 13.9289 12.1396 13.9451C11.987 14.0099 11.8019 14.0623 11.6089 14.1169L11.6088 14.1169ZM11.0669 16.2004C11.1808 16.2185 11.129 16.2676 11.0618 16.3297L11.0587 16.3326C10.9959 16.3915 10.9213 16.4616 10.9557 16.5329C11.807 17.383 14.5049 17.1242 15.8363 16.8654C15.9325 16.84 16.0275 16.8102 16.121 16.7761C16.3021 16.7127 16.4651 16.6558 16.6126 16.6804C16.8626 16.6996 17.0731 16.8699 17.2808 17.0379L17.2868 17.0427C17.4744 17.1967 17.6594 17.3481 17.869 17.383C16.3539 18.0856 13.396 18.4181 11.2144 17.9743C10.6606 17.863 9.69926 17.568 9.66174 17.1242C9.62551 16.5691 10.6231 16.3103 11.0669 16.2004ZM11.7323 18.388L11.732 18.3884V18.3871L11.7291 18.3903C11.7043 18.4175 11.6821 18.4419 11.6958 18.4544C12.1396 19.2682 14.4311 18.9719 15.5775 18.7131C15.6324 18.6952 15.6863 18.6725 15.7417 18.6491L15.7677 18.6381C15.9256 18.5708 16.0847 18.5035 16.2426 18.5294C16.5695 18.5488 16.7828 18.7488 16.9896 18.9426L16.9905 18.9434C17.1587 19.1026 17.3217 19.2553 17.5365 19.3057C15.91 20.2658 12.0283 20.6734 10.4381 19.4533C10.3398 18.629 10.9168 18.4802 11.5146 18.3275L11.732 18.2706C11.8223 18.2926 11.775 18.3428 11.7323 18.388ZM9.78866 19.8375L9.79442 19.8371H9.79443C9.98883 19.8256 10.1651 19.8152 10.2907 19.7857C9.4406 19.0469 6.70527 19.3794 6.66775 20.5245C6.63152 21.1909 7.48162 21.6709 8.18421 21.8935C10.3645 22.6323 13.8399 22.6698 16.6503 22.3735C17.9442 22.226 21.1233 21.6709 20.9745 20.2658C20.9008 19.897 20.5683 19.6382 20.1982 19.6007C20.4945 20.8946 18.1279 21.3009 16.8715 21.4497C14.1362 21.7447 10.8458 21.6709 9.21934 21.0421C8.92304 20.9321 8.47922 20.6358 8.51675 20.377C8.57109 19.9151 9.24522 19.8724 9.78866 19.8388V19.8375ZM9.32926 22.8174C10.8457 23.4824 12.6572 23.7412 14.5424 23.9638C14.5424 23.9638 16.724 23.9638 16.724 24C16.9049 23.9715 17.0877 23.9444 17.2711 23.9171C17.3461 23.906 17.4213 23.8948 17.4964 23.8835C19.6185 23.5756 21.8285 23.2521 22.4534 21.3759C22.3215 21.3491 22.2073 21.4565 22.0984 21.5591L22.095 21.5623C22.0549 21.6024 22.0135 21.6412 21.9734 21.671C19.163 23.705 13.3223 23.7787 9.32926 22.8174ZM18.8305 14.4626C19.8656 13.5749 21.6408 13.9075 21.6771 15.4239C21.7508 17.1604 19.8656 18.1593 18.4617 18.233C18.57 18.1296 18.7112 18.0157 18.8695 17.8878L18.8939 17.8681C19.6443 17.2626 20.7364 16.3801 20.4944 15.2014C20.3469 14.6476 19.6443 14.2775 18.8305 14.4626Z" fill="#0E2F4E"/>
</svg>
