<svg width="29" height="28" viewBox="0 0 29 28" fill="none" xmlns="http://www.w3.org/2000/svg">
<rect x="0.333313" width="28" height="28" rx="6" fill="#51BDEA"/>
<path fill-rule="evenodd" clip-rule="evenodd" d="M15.3419 4.57728C14.7231 4.22001 13.9607 4.22001 13.3419 4.57728L6.38562 8.59346C5.76682 8.95073 5.38562 9.61098 5.38562 10.3255V18.3579C5.38562 19.0724 5.76682 19.7327 6.38562 20.0899L13.3419 24.1061C13.9607 24.4634 14.7231 24.4634 15.3419 24.1061L22.2981 20.0899C22.9169 19.7327 23.2981 19.0724 23.2981 18.3579V10.3255C23.2981 9.61098 22.9169 8.95073 22.2981 8.59346L15.3419 4.57728ZM12.1327 8.65478C12.8268 8.37978 13.5689 8.24609 14.3153 8.26153C15.7831 8.29189 17.1805 8.89628 18.2078 9.94506C18.5502 10.2945 18.8423 10.6841 19.0797 11.1025L16.745 12.4462C16.624 12.24 16.477 12.0495 16.3072 11.8797C16.0456 11.6181 15.7351 11.4107 15.3933 11.2692C15.0515 11.1277 14.6852 11.055 14.3153 11.0551C13.9453 11.0548 13.5789 11.1274 13.237 11.2689C12.8951 11.4103 12.5844 11.6177 12.3227 11.8793C12.061 12.1408 11.8535 12.4514 11.7119 12.7933C11.5704 13.1351 11.4976 13.5015 11.4977 13.8715C11.4974 14.2416 11.5701 14.6082 11.7116 14.9502C11.8531 15.2921 12.0606 15.6029 12.3223 15.8646C12.584 16.1263 12.8947 16.3338 13.2367 16.4753C13.5787 16.6168 13.9452 16.6894 14.3153 16.6891C14.6853 16.6893 15.0517 16.6165 15.3936 16.475C15.7354 16.3334 16.046 16.1258 16.3076 15.8642C16.4772 15.6945 16.6241 15.5041 16.7449 15.2981L19.0786 16.6424C18.8414 17.0601 18.5497 17.449 18.2078 17.798C17.1805 18.8468 15.7831 19.4512 14.3153 19.4815C13.5689 19.497 12.8268 19.3633 12.1327 19.0883C11.4385 18.8133 10.8062 18.4025 10.2728 17.8801C9.73944 17.3576 9.31569 16.7339 9.0264 16.0456C8.73711 15.3573 8.5881 14.6182 8.5881 13.8715C8.5881 13.1249 8.73711 12.3858 9.0264 11.6974C9.31569 11.0091 9.73944 10.3855 10.2728 9.863C10.8062 9.34053 11.4385 8.92977 12.1327 8.65478ZM19.9254 13.5283V14.1691H19.2846V14.8111H18.6438V14.1691H18.0018V13.5283H18.6438V12.8875H19.2846V13.5283H19.9254ZM22.2846 13.5511V14.1919H21.6438V14.8339H21.0018V14.1919H20.361V13.5511H21.0018V12.9103H21.6438V13.5511H22.2846Z" fill="#0E2F4E"/>
</svg>
