<svg width="28" height="28" viewBox="0 0 28 28" fill="none" xmlns="http://www.w3.org/2000/svg">
<rect width="28" height="28" rx="6" fill="#51BDEA"/>
<path fill-rule="evenodd" clip-rule="evenodd" d="M15.0085 4.57728C14.3897 4.22001 13.6274 4.22001 13.0085 4.57728L6.05231 8.59346C5.43351 8.95073 5.05231 9.61098 5.05231 10.3255V18.3579C5.05231 19.0724 5.43351 19.7327 6.05231 20.0899L13.0085 24.1061C13.6274 24.4634 14.3897 24.4634 15.0086 24.1061L21.9648 20.0899C22.5836 19.7327 22.9648 19.0724 22.9648 18.3579V10.3255C22.9648 9.61098 22.5836 8.95073 21.9648 8.59346L15.0085 4.57728ZM13.982 8.26153C13.2355 8.24609 12.4935 8.37978 11.7993 8.65478C11.1052 8.92977 10.4729 9.34053 9.93951 9.863C9.40612 10.3855 8.98237 11.0091 8.69308 11.6974C8.40379 12.3858 8.25478 13.1249 8.25478 13.8715C8.25478 14.6182 8.40379 15.3573 8.69308 16.0456C8.98237 16.7339 9.40612 17.3576 9.93951 17.8801C10.4729 18.4025 11.1052 18.8133 11.7993 19.0883C12.4935 19.3633 13.2355 19.497 13.982 19.4815C15.4498 19.4512 16.8472 18.8468 17.8745 17.798C18.2163 17.449 18.5081 17.0601 18.7453 16.6424L16.4116 15.2981C16.2908 15.5041 16.1439 15.6945 15.9743 15.8642C15.7127 16.1258 15.4021 16.3334 15.0603 16.475C14.7184 16.6165 14.352 16.6893 13.982 16.6891C13.6119 16.6894 13.2454 16.6168 12.9034 16.4753C12.5614 16.3338 12.2507 16.1263 11.989 15.8646C11.7273 15.6029 11.5197 15.2921 11.3783 14.9502C11.2368 14.6082 11.1641 14.2416 11.1644 13.8715C11.1643 13.5015 11.237 13.1351 11.3786 12.7933C11.5202 12.4514 11.7277 12.1408 11.9894 11.8793C12.2511 11.6177 12.5618 11.4103 12.9037 11.2689C13.2456 11.1274 13.612 11.0548 13.982 11.0551C14.3519 11.055 14.7182 11.1277 15.06 11.2692C15.4018 11.4107 15.7123 11.6181 15.9739 11.8797C16.1437 12.0495 16.2907 12.24 16.4117 12.4462L18.7464 11.1025C18.509 10.6841 18.2168 10.2945 17.8745 9.94506C16.8472 8.89628 15.4498 8.29189 13.982 8.26153Z" fill="#0E2F4E"/>
</svg>
