<svg width="28" height="28" viewBox="0 0 28 28" fill="none" xmlns="http://www.w3.org/2000/svg">
<rect width="28" height="28" rx="6" fill="#AFC1CE"/>
<path d="M9.97685 21.2126C9.21497 20.6126 8.40185 20.0376 7.84685 19.2295C6.67873 17.8026 5.77872 16.1514 5.16372 14.4151C4.79185 13.2857 4.66372 12.0751 4.1856 10.9901C3.68372 10.2032 4.27122 9.342 5.13372 9.09075C5.51685 9.01762 6.19372 8.65512 5.3781 8.91387C4.64622 9.45075 4.5756 8.42637 5.3256 8.362C5.8381 8.29387 6.0256 7.8745 5.8506 7.49762C5.30122 7.1395 7.18372 6.74512 6.23622 6.21075C5.25122 5.14575 7.61685 4.94075 7.03373 6.14887C6.89435 7.07825 8.68685 5.97887 8.27122 7.05137C8.69373 7.567 9.85435 7.16887 9.8256 7.892C10.4425 7.93387 10.6531 8.452 11.2312 8.492C11.8312 8.76262 12.9169 8.97512 13.1206 9.65137C12.5262 10.122 11.15 8.6795 11.0837 9.982C11.2631 11.907 11.2168 13.8895 11.9212 15.722C12.2543 16.832 13.0618 17.7051 13.7912 18.5701C14.4887 19.417 15.4337 20.012 16.3968 20.5145C17.2418 20.9126 18.1525 21.177 19.0744 21.3426C19.4475 21.057 20.1075 19.9951 20.6894 20.4426C20.7169 20.9457 19.5325 21.4951 20.6337 21.4395C21.2806 21.2445 21.7287 21.9395 22.2612 21.3126C22.7512 21.8932 24.2994 20.9407 23.9506 22.1295C23.4787 22.4326 22.7906 22.2495 22.3181 22.6676C21.5387 22.2782 20.9181 23.0157 20.0556 22.9226C19.0975 23.0945 18.1231 23.1645 17.1525 23.1651C15.5594 23.0395 13.9318 22.9857 12.4156 22.432C11.5612 22.1839 10.7287 21.697 9.9781 21.2114L9.97685 21.2126ZM11.3225 21.7957C12.1556 22.1557 12.9718 22.5357 13.885 22.6507C15.335 22.8514 16.8325 23.1626 18.2875 22.8789C17.6294 22.5814 16.9475 22.9957 16.2919 22.6664C15.505 22.8357 14.6612 22.6232 13.8612 22.5189C12.9512 22.1139 11.9693 21.8357 11.1181 21.3089C10.0537 20.9207 11.6681 21.807 11.9562 21.8795C12.6212 22.257 11.2243 21.6851 11.0268 21.5289C10.47 21.2164 10.3987 21.2814 10.9718 21.5989C11.0875 21.6664 11.2018 21.737 11.3218 21.7945L11.3225 21.7957ZM9.7356 20.6745C10.5437 20.9739 9.73247 20.1064 9.36122 20.1564C9.19685 19.872 8.73435 19.692 9.06122 19.5395C8.47372 19.7426 8.44622 18.7645 8.16935 18.9039C7.54872 18.7082 7.92747 18.0132 7.18872 17.587C7.12123 17.137 6.45372 16.747 6.2406 16.0689C6.14622 15.722 5.48623 14.7245 5.89248 15.652C6.23747 16.5451 6.84497 17.3101 7.3506 18.0745C7.74248 18.802 8.20622 19.5626 8.92123 20.0164C9.1631 20.2482 9.39435 20.602 9.7356 20.6745ZM7.4081 18.1182C7.4356 17.9964 7.5556 18.3826 7.4081 18.1182V18.1182ZM10.7031 21.0326C10.4456 20.9326 10.8825 20.9526 10.7031 21.0326V21.0326ZM11.1418 21.1926C10.9418 21.3157 11.0968 20.972 11.1418 21.1926V21.1926ZM11.6918 21.422C11.2887 21.2651 11.9525 21.1726 11.6918 21.422V21.422ZM12.6318 21.947C12.1237 21.8576 12.7912 21.712 12.6318 21.947V21.947ZM10.825 20.6857C10.3 20.6826 11.2306 20.4232 10.825 20.6857V20.6857ZM11.2368 20.8907C11.09 20.9532 11.225 20.7526 11.2368 20.8907V20.8907ZM13.295 22.1757C13.6268 22.3839 15.2281 22.6339 14.225 22.2614C14.0575 22.2964 12.3656 21.7832 13.295 22.1757ZM10.0275 19.6307C9.51435 19.4764 9.99497 19.4914 10.0275 19.6307V19.6307ZM10.9856 20.1895C10.4681 20.0564 11.2356 20.0151 10.9856 20.1895V20.1895ZM11.7918 20.6832C11.2112 20.5476 12.15 20.5482 11.7918 20.6832V20.6832ZM9.63748 19.2057C10.0256 19.5039 11.2043 19.2439 10.2325 19.0282C9.7906 18.7926 8.7931 18.6314 9.47247 19.1701L9.63748 19.2057ZM12.3375 20.8545C11.6593 20.697 12.4993 20.5795 12.3375 20.8545V20.8545ZM11.5175 20.202C12.4675 20.4714 10.7193 19.602 11.2831 20.1039L11.4081 20.1607L11.5162 20.2026L11.5175 20.202ZM13.1625 21.1526C12.35 21.0295 14.0618 21.1607 13.1625 21.1526V21.1526ZM9.29185 18.6857C9.06997 18.7001 9.25685 18.5182 9.29185 18.6857V18.6857ZM14.6831 22.0057C14.39 22.2307 14.7075 21.7032 14.6831 22.0057V22.0057ZM10.8256 19.6257C10.545 19.6189 10.7712 19.4664 10.8256 19.6257V19.6257ZM9.37685 18.5807C8.66997 18.3532 9.89372 18.5501 9.37685 18.5807V18.5807ZM7.65997 17.4707C7.0981 17.0257 7.5956 17.2232 7.65997 17.4707V17.4707ZM12.1669 20.3332C12.0718 20.2251 12.1219 20.3564 12.1669 20.3332V20.3332ZM14.9719 22.0545C14.8194 22.117 14.9637 21.8901 14.9719 22.0545V22.0545ZM11.9181 20.077C11.4775 20.0126 11.9681 19.8645 11.9181 20.077V20.077ZM9.82935 18.7501C9.21372 18.4907 10.2125 18.7095 9.82935 18.7501V18.7501ZM13.3643 20.9476C12.7812 20.8307 13.9625 20.7101 13.3643 20.9476V20.9476ZM11.525 19.7001C12.215 19.7882 10.7043 19.2307 11.3743 19.6501L11.525 19.7001ZM13.9225 21.1732C14.5668 20.7882 14.3544 22.0751 15.015 21.2814C15.6669 20.8064 14.4525 21.8707 15.2556 21.367C15.8362 20.9776 16.695 21.5501 17.2362 21.7376C17.6262 21.7182 18.0056 22.0751 18.4056 21.8582C19.175 21.6501 16.9006 21.5501 17.4975 21.1832C16.7931 21.3876 16.2725 20.9382 15.9269 20.4876C15.1369 20.3051 14.2237 19.902 13.8293 19.2026C13.6693 18.9401 14.0618 19.2395 13.6912 18.8107C13.2156 18.3876 12.9781 17.9064 12.6581 17.3926C12.2775 17.1895 12.2331 16.5901 12.1937 17.3726C12.1968 16.8782 11.7331 16.5457 11.6193 16.6845C11.6175 16.2089 12.1162 16.447 11.7668 16.0951C11.6918 15.602 11.4443 15.0876 11.37 14.5307C11.255 14.2626 11.3531 13.6882 10.9756 14.2957C10.8381 14.9376 10.93 13.5064 11.1437 13.9789C11.4243 13.4964 11.0437 13.5539 11.0268 13.6207C11.21 13.2139 11.1437 12.6376 10.9793 12.8576C11.0768 12.427 11.1337 11.2726 10.8337 11.4776C11.0156 11.0276 11.1787 9.417 10.3887 10.0307C10.0687 10.0351 9.5156 10.1476 9.2531 10.2776C10.075 10.7301 9.1706 10.4407 8.83623 10.3695C8.7931 10.7876 8.46123 10.607 8.0481 10.6114C8.70872 10.6932 7.72622 11.2864 7.34747 11.0564C6.8556 11.2914 7.77248 11.8789 7.35748 12.0607C7.4081 12.3339 6.6031 11.9614 6.6656 12.5939C6.1881 12.3932 6.6006 13.3439 6.83997 13.022C7.65247 13.242 7.41185 13.7439 7.43248 14.2195C7.29997 14.497 6.7781 13.567 7.3156 13.6101C6.89247 12.9207 6.84748 13.3607 6.49498 13.6807C6.41247 13.7039 7.39435 14.1364 6.7781 14.3501C7.31997 14.4332 7.33498 14.9082 7.44497 15.2082C7.7706 15.5476 7.70435 14.8332 8.09435 15.2414C7.84748 14.8782 6.78873 14.2182 7.64123 14.4295C7.63685 14.0639 7.48685 13.7689 7.74872 13.7764C8.00685 13.3082 7.4781 14.932 8.06122 14.3364C8.22185 14.2657 8.26185 13.867 8.5531 14.3739C8.97372 14.7889 8.70498 15.0889 8.1106 14.7095C8.21623 15.0701 8.9056 15.1989 8.77623 15.7639C8.91372 16.2595 9.1056 16.077 9.2731 16.0489C9.40497 16.5307 9.47872 16.1764 9.4856 15.9464C10.0862 16.0757 9.9456 16.4307 10.1337 16.6795C10.5481 16.8664 9.5406 15.4114 10.2518 16.2414C11 16.917 10.5325 17.1995 9.85997 17.0914C10.285 17.057 10.4225 17.6664 10.9543 17.6445C11.4393 17.8751 11.7675 18.7614 10.9318 18.392C10.6418 18.1314 9.61622 17.8089 10.4543 18.3051C11.2287 18.6632 11.8425 18.8782 12.5893 19.3276C13.1225 19.7095 13.3543 20.1457 13.5562 20.2326C13.1081 20.447 12.2037 20.0607 12.8756 19.9426C12.4562 19.867 11.9856 19.6551 12.3862 20.1757C12.7281 20.4614 13.5943 20.4307 13.7506 20.4632C13.6181 20.7532 13.3925 20.7764 13.7556 20.7989C13.3506 21.0157 13.8856 21.0489 13.9231 21.172L13.9225 21.1732ZM13.0943 18.8332C12.8475 18.5751 12.7837 18.0914 13.05 18.5126C13.1868 18.5676 13.4875 19.302 13.0943 18.8332ZM15.7925 20.5476C15.7975 20.6645 15.9468 20.5382 15.7925 20.5476V20.5476ZM12.7043 18.2007C12.695 17.8107 12.7937 18.5014 12.7043 18.2007V18.2007ZM12.4356 17.8401C12.1256 17.2407 12.8275 18.0101 12.4356 17.8401V17.8401ZM9.1856 15.597C9.27497 15.9089 9.36747 15.5476 9.1856 15.597V15.597ZM11.7725 16.9982C11.8843 16.5782 11.9043 17.3514 11.7725 16.9982V16.9982ZM9.94497 15.7276C9.8156 15.4957 10.2143 15.9451 9.94497 15.7276V15.7276ZM11.5131 16.2307C11.22 15.5726 11.7212 15.8707 11.5781 16.3389L11.5131 16.2307ZM8.8081 14.427C8.67622 14.2101 8.45997 13.577 8.52997 13.3839C8.5931 13.6989 9.19998 14.7395 8.82748 13.8157C8.4156 13.0407 9.31935 14.0676 9.41247 14.2607C9.45497 14.4526 9.1581 14.2082 9.35935 14.6589C8.99247 14.1445 9.14247 14.942 8.80872 14.427H8.8081ZM7.97247 13.8507C8.00685 13.3482 8.16435 14.1951 7.97247 13.8507V13.8507ZM8.3481 13.9801C8.52747 13.6007 8.65247 14.5082 8.3481 13.9801V13.9801ZM7.44435 13.2801C7.13247 12.972 6.90747 12.6857 7.45872 13.0882C7.67122 13.0964 6.98685 12.4401 7.50935 12.8801C8.05935 12.9801 7.78122 13.782 7.44435 13.2801ZM7.91935 13.2676C8.01498 13.4445 8.09997 13.0882 7.91935 13.2676V13.2676ZM8.2106 13.362C7.93747 12.8476 8.54373 13.577 8.2106 13.362V13.362ZM7.62997 12.8057C6.72498 12.0007 8.76748 13.2276 7.77747 12.9557L7.62997 12.8057ZM10.2225 14.3126C9.8306 14.0776 10.1193 12.6595 10.2525 13.6295C10.6331 13.5064 10.2318 14.1301 10.515 14.1245C10.4706 14.5189 10.3431 14.6601 10.2231 14.3126H10.2225ZM11.1806 14.8795C11.22 14.452 11.2625 15.1714 11.1806 14.8795V14.8795ZM11.0143 14.7145C11.0193 14.9295 11.0587 14.532 11.0143 14.7145V14.7145ZM7.8081 12.542C7.22747 11.7395 9.49748 13.3526 8.1806 12.7451C8.0431 12.7095 7.87747 12.6957 7.8081 12.542ZM9.65497 13.5207C9.59997 12.8457 9.77747 13.6326 9.65497 13.5207V13.5207ZM11.0568 14.4201C11.065 14.6745 11.165 14.0351 11.0568 14.4201V14.4201ZM7.89685 12.2351C8.24248 12.162 9.32872 12.8426 8.33122 12.4301C8.2206 12.307 7.98373 12.3632 7.89685 12.2351ZM10.8631 13.7145C10.9 13.0239 11.07 13.302 10.865 13.8126L10.8631 13.7145ZM8.15435 11.9951C8.29497 11.7882 7.77997 11.062 8.22872 11.7345C8.42185 11.8889 8.78872 11.9926 8.46435 12.057C8.97372 12.5064 8.33997 12.1789 8.15435 11.9951ZM10.7168 13.4982C10.8025 13.9589 10.8143 12.7114 10.7168 13.4982V13.4982ZM7.85997 11.2682C7.91685 11.4114 7.96747 11.2226 7.85997 11.2682V11.2682ZM8.5281 11.667C8.69998 11.3051 8.84497 12.0695 8.5281 11.667V11.667ZM10.4143 12.7157C10.4125 12.5764 10.45 12.9176 10.4143 12.7157V12.7157ZM10.305 12.4745C10.0431 11.8276 10.5481 12.8164 10.305 12.4745V12.4745ZM10.1444 12.0501C10.1 11.7832 10.2943 12.3857 10.1444 12.0501V12.0501ZM10.4056 11.6251C10.2256 11.3082 10.6325 10.2301 10.6775 10.8995C10.4881 11.4201 10.6231 11.712 10.755 11.0126C10.9993 10.4626 10.7025 12.0982 10.405 11.6251H10.4056ZM10.6743 10.022C10.6918 10.1376 10.7525 9.92637 10.6743 10.022V10.022ZM10.2256 18.8657C10.1187 18.7732 10.2387 18.9251 10.2256 18.8657V18.8657ZM11.1506 19.3332C11.6637 19.4657 11.6612 19.2532 11.1962 19.1907C10.9462 18.9576 10.1581 18.7114 10.8637 19.1614C10.9106 19.2795 11.0587 19.277 11.1493 19.3332H11.1506ZM9.32435 18.1207C9.60747 18.3314 10.3912 18.7201 9.72747 18.2007C9.95185 17.9407 9.29935 17.8026 9.5156 17.6289C8.9656 17.292 9.08247 17.322 9.46747 17.332C8.8056 17.037 9.56247 17.0589 9.52685 16.907C9.27185 16.857 8.25997 16.4576 8.85623 16.9401C8.25122 16.632 8.71185 17.0551 8.52935 17.0101C7.90998 16.842 9.07935 17.4807 8.43122 17.3226C8.7856 17.6032 9.38622 18.0426 8.58122 17.6201C8.47435 17.7726 9.15685 18.0032 9.32435 18.1201V18.1207ZM10.2906 18.677C9.71497 18.2139 11.4662 19.0551 10.2906 18.677V18.677ZM15.2406 21.6751C15.0806 21.8751 15.2575 21.442 15.2406 21.6751V21.6751ZM15.7506 21.8895C16.0212 21.627 15.7612 22.3089 16.2 21.8251C16.205 21.4795 16.1868 21.2751 15.6956 21.6951C15.5606 21.7701 15.5006 22.0895 15.7506 21.8895ZM7.6731 16.817C7.08997 16.492 7.58997 16.4895 7.6731 16.817V16.817ZM8.21685 17.1732C7.49685 16.8701 8.01498 16.8382 8.21685 17.1732V17.1732ZM11.3081 19.0376C11.61 19.3051 12.6937 19.2345 11.675 19.0707C11.5231 18.8464 10.7156 18.9007 11.3081 19.0376ZM15.5568 21.662C15.1068 21.8351 16.0218 21.272 15.5568 21.662V21.662ZM16.5231 22.3251C16.3231 22.3801 16.5256 22.2001 16.5231 22.3251V22.3251ZM16.5244 22.1501C16.0262 22.1826 17.0387 21.6051 16.5244 22.1501V22.1501ZM6.33747 15.6982C5.89935 15.0732 6.06498 14.7914 5.64185 14.2814C5.56185 13.8895 4.91685 13.0039 5.30872 13.9432C5.66685 14.4926 5.77372 15.3426 6.3381 15.6982H6.33747ZM16.3625 21.977C15.975 21.7101 17.3094 21.3651 16.3625 21.977V21.977ZM17.085 22.2601C16.785 22.1751 17.56 21.8532 17.085 22.2601V22.2601ZM7.51247 16.1251C7.16247 16.0995 7.6481 15.9232 7.51247 16.1251V16.1251ZM16.9344 22.0657C17.3937 21.7701 16.8294 21.8157 16.8512 22.0926L16.9344 22.0657ZM10.7081 18.142C10.4656 18.1589 10.6912 17.942 10.7081 18.142V18.142ZM11.0925 18.3632C10.905 18.4026 10.9706 18.1157 11.0925 18.3632V18.3632ZM17.6706 22.267C18.2581 21.842 17.3137 22.1851 17.5475 22.347L17.6706 22.267ZM17.4456 22.1582C16.94 22.3357 17.9237 21.7564 17.4456 22.1582V22.1582ZM18.5956 22.9232C18.205 22.8539 18.9175 22.7082 18.5956 22.9232V22.9232ZM7.80747 15.9801C8.2381 16.077 9.52935 17.042 8.76747 16.047C8.37747 15.932 8.61185 14.9776 8.2131 15.147C8.47998 15.5926 8.4331 15.7826 7.87247 15.502C7.16747 15.1576 7.47685 15.672 7.61435 15.8139C7.42685 15.857 7.86247 15.977 7.80747 15.9807V15.9801ZM5.84435 14.4301C5.92122 14.1107 5.13372 12.6745 5.47247 13.7101C5.59435 13.927 5.58185 14.3382 5.84435 14.4301ZM9.44747 16.652C9.2256 16.4664 9.43685 16.6251 9.44747 16.652V16.652ZM9.99435 16.7782C9.38997 16.6414 9.99435 16.4407 9.99435 16.7782V16.7782ZM14.7294 19.7645C14.3725 19.7595 14.6393 19.5326 14.7294 19.7645V19.7645ZM14.9569 19.9301C14.8262 19.9551 14.9237 19.8007 14.9569 19.9301V19.9301ZM16.8344 21.1126C16.6094 21.0957 17.0143 20.9795 16.8344 21.1126V21.1126ZM6.82498 14.6801C6.27185 14.5376 7.34185 14.4801 6.82498 14.6801V14.6801ZM14.3125 19.3976C13.9831 19.4807 14.3069 19.0632 14.3125 19.3976V19.3976ZM6.6206 14.2051C6.31372 14.1307 6.95247 14.0926 6.6206 14.2051V14.2051ZM7.5831 14.672C7.48122 14.7139 7.57747 14.5614 7.5831 14.672V14.672ZM19.325 21.872C19.7525 21.7851 20.7243 22.0889 20.8806 21.7589C20.3631 21.7464 19.0887 21.3939 19.0287 21.8432L19.1418 21.8614L19.325 21.872ZM7.88997 14.7482C7.6256 14.7357 7.89748 14.4089 7.88997 14.7482V14.7482ZM5.3581 12.992C4.9206 12.8939 5.2431 12.3464 5.3581 12.992V12.992ZM5.96185 13.1432C5.40935 12.9564 5.96935 12.9357 5.96185 13.1432V13.1432ZM6.30685 13.3126C6.20685 13.232 6.22872 13.4145 6.30685 13.3126V13.3126ZM8.47748 14.7045C8.2356 14.6351 8.57935 14.6114 8.47748 14.7045V14.7045ZM6.07747 12.9307C5.37747 12.8576 6.01935 12.4432 6.07747 12.9307V12.9307ZM4.83935 12.1276C4.71935 12.2126 4.82247 11.9026 4.83935 12.1276V12.1276ZM5.0231 11.9882C4.86497 12.0214 4.9931 11.7214 5.0231 11.9882V11.9882ZM6.03997 12.5957C6.4706 12.4264 5.25685 12.2457 5.95247 12.5632L6.03997 12.5957ZM19.6518 21.0032C19.3018 20.9251 19.9268 20.7507 19.6518 21.0032V21.0032ZM21.2969 21.8557C21.0187 21.8982 21.4068 21.5289 21.2969 21.8557V21.8557ZM6.14435 12.0632C5.80372 12.1257 6.18997 11.7476 6.14435 12.0632V12.0632ZM4.69747 11.0945C4.61997 10.6489 4.6306 9.86637 5.37435 10.1314C4.38185 10.3282 6.06122 11.3645 5.84935 10.5464C6.26622 10.5664 6.66622 10.2995 6.44622 10.7045C7.26872 10.6139 7.83872 9.90137 8.6331 10.0001C9.25122 9.91825 9.9281 9.857 10.595 9.60762C11.1431 9.56762 11.6706 8.97762 11.37 8.62825C10.6231 8.56512 9.8406 8.65825 9.01435 8.82262C8.09935 9.01262 7.26747 9.3745 6.34372 9.53012C5.44372 9.65075 6.52435 9.86325 6.26685 9.91012C5.79685 10.0732 6.82685 10.1832 6.20622 10.3551C5.8231 10.282 5.4231 10.1501 5.58685 9.747C4.72435 9.85762 3.96622 10.2164 4.64747 11.0939H4.6981L4.69747 11.0945ZM6.7756 10.0357C6.9781 9.29075 7.85873 10.6482 7.10748 10.1339C7.01747 10.067 6.86997 10.012 6.7756 10.0345V10.0357ZM6.81498 9.6745C6.96997 9.79637 7.10685 9.45762 6.81498 9.6745V9.6745ZM7.1856 9.68075C7.21248 9.33825 8.03372 9.86262 7.32122 9.80387L7.1856 9.68075ZM7.69247 9.477C7.7456 9.6695 7.87747 9.26012 7.69247 9.477V9.477ZM7.82247 9.39012C8.1306 9.02012 9.5681 9.1545 8.5156 9.3545C8.23373 9.142 8.01748 9.4795 7.82247 9.39012ZM9.6981 9.10075C9.65122 8.08887 10.63 9.46075 9.6981 9.10075V9.10075ZM10.2306 9.09762C10.425 8.58762 10.9856 8.89325 10.3206 8.99512C10.335 9.0495 10.3006 9.25825 10.2306 9.09762ZM5.93497 11.802C5.31747 11.4939 6.5156 11.4464 5.93497 11.802V11.802ZM6.36435 11.922C5.92185 11.8339 6.56872 11.7051 6.36435 11.922V11.922ZM5.09747 11.022C4.70497 10.9251 5.42997 10.7676 5.09747 11.022V11.022ZM22.2668 21.7632C22.0137 21.8964 22.2768 21.4676 22.2668 21.7632V21.7632ZM20.5225 20.5726C20.2975 20.6026 20.5725 20.232 20.5225 20.5726V20.5726ZM22.7475 21.8782C23.2119 21.8782 24.1544 21.7339 23.1431 21.7339C22.985 21.7589 22.2187 21.7539 22.7462 21.8782H22.7475ZM6.74185 11.712C7.11748 11.687 7.32997 11.2976 6.66935 11.3201C5.64435 11.2145 7.57247 11.6701 6.53747 11.5401C6.3981 11.632 6.73435 11.7376 6.74185 11.7126V11.712ZM7.0731 11.8801C6.95622 12.0082 7.0331 11.6382 7.0731 11.8801V11.8801ZM7.46497 10.8326C7.23997 10.7782 7.62935 10.6301 7.46497 10.8326V10.8326ZM6.21497 8.74262C6.88685 8.5145 7.80435 8.25825 8.1206 8.85512C7.7981 8.467 7.9906 8.08512 8.2956 8.65262C8.7256 9.227 8.94122 8.392 8.6606 8.19825C8.97997 8.59512 9.3431 8.78262 8.87498 8.22325C9.3831 7.61137 7.8556 8.30387 7.5081 8.29637C7.34122 8.37137 5.78247 8.69387 6.2156 8.742L6.21497 8.74262ZM6.6081 7.99012C6.99122 7.70075 7.93122 8.162 7.3281 7.70262C7.26997 7.65075 6.00622 8.05075 6.6081 7.99012ZM8.0031 8.04762C8.45123 8.05825 7.8106 7.44575 8.34372 7.72325C8.25622 7.43637 7.72185 7.38325 7.46123 7.26887C7.31372 7.53075 7.76122 8.05075 8.0031 8.047V8.04762ZM6.8531 6.78075C6.58122 6.88762 7.0081 6.57075 6.8531 6.78075V6.78075ZM7.4231 6.91762C8.14498 6.822 7.23997 6.607 7.2781 6.9095L7.4231 6.91762ZM6.35935 6.0845C5.85122 5.42137 7.31435 6.19637 6.79873 5.50137C6.36372 5.15575 5.94622 5.89137 6.35935 6.0845ZM12.88 9.597C13.1131 9.18387 11.9175 9.04012 12.7231 9.45137C12.7975 9.47637 12.7806 9.62637 12.88 9.597Z" fill="black"/>
</svg>
