<svg width="28" height="28" viewBox="0 0 28 28" fill="none" xmlns="http://www.w3.org/2000/svg">
<rect width="28" height="28" fill="#51BDEA"/>
<path d="M13.4163 8.1183C14.8798 8.1183 16.3501 8.05647 17.8137 8.1183C19.3802 8.20763 20.6239 9.84978 20.562 11.6912C20.562 12.3164 20.6032 12.6119 21.3384 12.7837C23.1592 13.2509 24.2861 15.3671 23.9837 17.3734C23.6333 19.6615 21.9225 20.9875 19.9299 20.8089C18.7687 20.7127 17.5938 20.8089 16.4051 20.7196C16.9498 20.4232 17.4301 20.0216 17.8182 19.5379C18.2062 19.0543 18.4943 18.4984 18.6656 17.9025C19.3046 15.5252 17.8892 13.0929 15.9173 12.7012C15.4638 12.6119 15.5256 12.3027 15.5119 12.0141C15.5394 11.2373 15.3598 10.4671 14.9915 9.78248C14.6233 9.0979 14.0796 8.52355 13.4163 8.1183Z" fill="#0E2F4E"/>
<path opacity="0.5" d="M4.22302 16.2948C5.21244 16.4597 5.19182 15.9994 5.15747 15.3123C5.03379 12.7151 6.89581 10.3515 9.12886 10.2484C9.5205 10.2484 9.49989 9.95985 9.60983 9.74685C9.80171 9.34891 10.1037 9.01439 10.4801 8.78299C10.8564 8.55159 11.2912 8.43302 11.7329 8.44137C12.1779 8.37096 12.6336 8.42407 13.0504 8.59491C13.4672 8.76574 13.829 9.04775 14.0965 9.41017C14.3989 9.84304 14.4676 10.0973 13.7805 10.3103C12.645 10.6753 11.6793 11.4378 11.0608 12.4577C10.4423 13.4775 10.2126 14.6863 10.4137 15.862C10.503 16.2948 10.7573 16.2399 11.039 16.2536C11.2176 16.2536 11.4512 16.1712 11.5474 16.3567C11.6436 16.5422 11.4237 16.7346 11.3138 16.8857C10.8191 17.5728 10.3107 18.2599 9.80221 18.9127C9.66479 19.0913 9.54799 19.3455 9.24567 19.1806L4.28486 16.5078L4.22302 16.2948Z" fill="#0E2F4E"/>
</svg>
