<svg width="29" height="28" viewBox="0 0 29 28" fill="none" xmlns="http://www.w3.org/2000/svg">
<rect x="0.333374" width="28" height="28" rx="6" fill="#A8DE63"/>
<path fill-rule="evenodd" clip-rule="evenodd" d="M8.53969 20.5961C8.86199 20.8563 9.33499 20.8079 9.59459 20.485C9.85584 20.1633 9.80689 19.6903 9.48459 19.429C9.16284 19.1683 8.69039 19.2184 8.42859 19.5401C8.18109 19.8454 8.21299 20.2859 8.49184 20.5543L8.34554 20.4256C6.61799 18.8191 5.53339 16.5283 5.53339 13.9879C5.53339 9.14235 9.47579 5.19995 14.3224 5.19995C16.7864 5.19995 19.0139 6.2213 20.6116 7.85975C20.9746 7.36585 21.2892 6.81365 21.5466 6.2015C22.6664 9.5664 23.3248 12.3945 23.0839 14.622C22.7583 19.1727 18.9545 22.7785 14.3224 22.7785C12.1708 22.7785 10.1996 21.9997 8.67059 20.7122L8.53969 20.5961ZM21.5087 17.856C23.7142 14.9212 22.4849 10.1753 21.4619 7.142C20.5506 9.04115 18.306 10.4937 16.3678 10.9535C14.5512 11.3869 12.9435 11.0316 11.2622 11.6784C7.42869 13.1524 7.48919 17.724 9.60119 18.7514C9.60229 18.7514 9.72769 18.8196 9.72604 18.8174C9.72604 18.8163 12.8302 18.2003 14.5462 17.5667C17.0542 16.6405 19.8075 14.3575 20.7134 11.7054C20.231 14.4636 17.8633 17.1174 15.4845 18.3362C14.2184 18.9863 13.2339 19.1309 11.1505 19.852C10.8953 19.9389 10.6951 20.0247 10.6951 20.0247C11.2231 19.9367 11.7495 19.9081 11.7495 19.9081C14.7156 19.7678 19.3433 20.7419 21.5092 17.8566L21.5087 17.856Z" fill="#203800"/>
</svg>
