<svg width="28" height="28" viewBox="0 0 28 28" fill="none" xmlns="http://www.w3.org/2000/svg">
<rect width="28" height="28" fill="#AFC1CE"/>
<g clip-path="url(#clip0_22543_5782)">
<path d="M4.59998 8.65576V19.2866H5.59164V15.8708L5.97498 15.4316L8.59748 19.2866H9.58914L6.54164 14.8083L8.85248 12.1999H8.71081L5.59164 15.7149V8.65659L4.59998 8.65576ZM13.7991 12.1433C12.8075 12.1433 11.985 12.4691 11.3325 13.1208C10.6908 13.7733 10.3691 14.6899 10.3691 15.8708C10.3691 17.0524 10.6808 17.9266 11.3041 18.4933C11.9283 19.0599 12.7358 19.3433 13.7283 19.3433C14.73 19.3433 15.5516 19.0183 16.195 18.3658C16.8466 17.7133 17.1725 16.7966 17.1725 15.6158C17.1725 14.4349 16.8608 13.5608 16.2375 12.9933C15.6133 12.4266 14.8008 12.1433 13.7991 12.1433ZM21.2125 12.1433C20.325 12.1471 19.4492 12.3454 18.6466 12.7241L18.7033 12.8241C18.9208 12.7008 19.2616 12.5774 19.7241 12.4549C20.1966 12.3224 20.6075 12.2566 20.9575 12.2566C21.3075 12.2566 21.5908 12.3041 21.8075 12.3983C22.0241 12.4833 22.1758 12.5874 22.2616 12.7099C22.3466 12.8333 22.4116 12.9599 22.46 13.0933C22.5166 13.2158 22.535 13.3199 22.5166 13.4049C22.5225 14.2133 22.5166 15.0616 22.5166 15.8849C22.2855 15.8651 22.0536 15.8556 21.8216 15.8566C21.5666 15.8566 21.2883 15.8708 20.9858 15.8991C19.7666 15.9749 18.9775 16.1824 18.6183 16.5233C18.4391 16.6933 18.33 16.8491 18.2925 16.9908C18.2541 17.1324 18.2358 17.2649 18.2358 17.3874C18.2358 17.5008 18.245 17.6149 18.2641 17.7283C18.425 18.8049 19.1 19.3441 20.2908 19.3441C21.3116 19.3441 22.0533 18.9233 22.5158 18.0824V18.3799C22.5158 18.5308 22.625 18.7108 22.8425 18.9183C23.0783 19.1641 23.5175 19.2874 24.1608 19.2874H24.6V19.1741H24.1608L24.005 19.1458C23.8916 19.1358 23.7783 19.0599 23.6641 18.9183C23.5608 18.7674 23.5083 18.5549 23.5083 18.2808V13.5324C23.5083 13.2299 23.3858 12.9416 23.14 12.6674C22.725 12.2033 21.8366 12.1474 21.2125 12.1424V12.1433ZM13.8275 12.2566C14.5458 12.2566 15.1216 12.5308 15.5566 13.0783C15.9916 13.6266 16.2091 14.4724 16.2091 15.6158C16.2091 16.7491 15.9725 17.6383 15.5008 18.2808C15.0275 18.9141 14.4325 19.2308 13.7141 19.2308C12.9958 19.2308 12.4191 18.9558 11.985 18.4083C11.55 17.8599 11.3325 17.0191 11.3325 15.8849C11.3325 14.7416 11.5691 13.8533 12.0408 13.2199C12.5141 12.5783 13.1091 12.2566 13.8275 12.2566ZM21.7366 15.9699C22.0016 15.9699 22.2616 15.9799 22.5166 15.9983V17.7133C22.4883 18.0349 22.2708 18.3708 21.8641 18.7199C21.4936 19.0504 21.014 19.2324 20.5175 19.2308C19.7616 19.2308 19.3416 18.7299 19.2566 17.7283C19.2469 17.6433 19.2414 17.5579 19.24 17.4724C19.24 17.0566 19.3491 16.7308 19.5666 16.4949C19.7833 16.2583 20.2516 16.0974 20.97 16.0124C21.2316 15.9808 21.5033 15.9799 21.7366 15.9708V15.9699Z" fill="black" stroke="black" stroke-width="0.3"/>
</g>
<defs>
<clipPath id="clip0_22543_5782">
<rect width="20" height="20" fill="white" transform="translate(4.59998 4)"/>
</clipPath>
</defs>
</svg>
