<svg width="29" height="28" viewBox="0 0 29 28" fill="none" xmlns="http://www.w3.org/2000/svg">
<rect x="0.666626" width="28" height="28" rx="6" fill="#A8DE63"/>
<path d="M14.074 5.66675H16.7992V18.2814C15.4012 18.5467 14.3748 18.6529 13.2599 18.6529C9.9329 18.6529 8.1987 17.1489 8.1987 14.2643C8.1987 11.4859 10.0392 9.68102 12.8882 9.68102C13.3306 9.68102 13.6668 9.71635 14.0738 9.82248L14.074 5.66675ZM14.074 12.0164C13.7554 11.9103 13.49 11.8749 13.1538 11.8749C11.7734 11.8749 10.9771 12.7244 10.9771 14.2108C10.9771 15.662 11.7381 16.4583 13.136 16.4583C13.4367 16.4583 13.6846 16.4406 14.0739 16.3876L14.074 12.0164Z" fill="#203800"/>
<path d="M21.1348 9.8754V16.1929C21.1348 18.3696 20.9755 19.4136 20.4978 20.3163C20.0553 21.1835 19.4712 21.7319 18.268 22.3337L15.7373 21.1304C16.9406 20.5641 17.5246 20.0687 17.8962 19.3075C18.2856 18.5289 18.4096 17.6265 18.4096 15.2551V9.87553L21.1348 9.8754ZM18.4096 5.6814H21.1348V8.4774H18.4096V5.6814Z" fill="#203800"/>
</svg>
